<svg xmlns="http://www.w3.org/2000/svg" viewBox="0 0 371.33 404.62"><defs><style>.cls-1{isolation:isolate;}.cls-2{fill:#1c3b68;}.cls-3{fill:#253874;mix-blend-mode:multiply;}.cls-4{fill:#1b4b75;}.cls-5{fill:#2e6aa4;}.cls-6{fill:#231f20;}.cls-7{fill:#2d9e32;}.cls-8{fill:#ffda00;}.cls-9{fill:#339130;}.cls-10,.cls-12{fill:#fff;}.cls-10{opacity:0.35;}.cls-11{fill:#ce2a27;}</style></defs><g class="cls-1"><g id="Calque_1" data-name="Calque 1"><rect class="cls-2" x="103.63" y="97.18" width="164.64" height="58"/><rect class="cls-3" x="103.63" y="97.18" width="164.64" height="5.91"/><rect class="cls-4" x="93.21" y="83.64" width="185.48" height="13.55"/><polygon class="cls-5" points="278.69 83.64 93.21 83.64 134.89 68.7 237.01 68.7 278.69 83.64"/><polygon class="cls-6" points="225.62 78.5 146.94 78.5 153.82 75.65 219.29 75.65 225.62 78.5"/><path class="cls-7" d="M54.65,289.36H88.38V307H22.6l0-17.12s13.85-9.5,23.58-17.84c15.53-13.31,21.62-22.92,21.53-31.51a11.08,11.08,0,0,0-3.17-8.35c-4.38-4.77-14.19-5.12-18.88,1.05-2.14,2.81-3,6.92-3.39,13.33H21.82Q21.74,229.35,31.87,220t25-9.4q13.89,0,22.68,8.09t8.79,20.72c0,8.22-3.17,17.16-10.64,26.89C68.34,278.5,54.65,289.36,54.65,289.36Z"/><path class="cls-8" d="M142.14,211.84c-25.26,0-45.81,21.45-45.81,47.81s20.55,47.82,45.81,47.82,45.8-21.45,45.8-47.82S167.4,211.84,142.14,211.84Z"/><path class="cls-8" d="M232.27,289.36H266V307H200.23l0-17.12S214,280.33,223.76,272c15.54-13.31,21.62-22.92,21.54-31.51a11.12,11.12,0,0,0-3.17-8.35c-4.39-4.77-14.2-5.12-18.89,1.05-2.14,2.81-3,6.92-3.38,13.33H199.45q-.07-17.16,10-26.55t25-9.4q13.89,0,22.68,8.09t8.8,20.72c0,8.22-3.17,17.16-10.64,26.89C246,278.5,232.27,289.36,232.27,289.36Z"/><path class="cls-9" d="M140.76,236.05c.61-1.66,1.62-1.66,2.23,0l4.75,12.84a5.27,5.27,0,0,0,4.34,3.15l13.68.54c1.77.08,2.08,1,.69,2.14l-10.74,8.48a5.2,5.2,0,0,0-1.66,5.09l3.7,13.18c.48,1.71-.33,2.3-1.81,1.32l-11.38-7.59a5.23,5.23,0,0,0-5.37,0l-11.39,7.59c-1.47,1-2.28.39-1.8-1.32l3.7-13.18a5.22,5.22,0,0,0-1.65-5.09l-10.75-8.48c-1.39-1.1-1.08-2.06.69-2.14l13.68-.54a5.26,5.26,0,0,0,4.34-3.15Z"/><ellipse class="cls-10" cx="185.95" cy="83.6" rx="86.36" ry="0.44"/><rect class="cls-11" x="164.59" y="7.6" width="42.72" height="70.86"/><path class="cls-12" d="M194,65.28v2.81l-14.4,6V71L190.8,66.7l-11.16-4.35v-3Z"/><path class="cls-12" d="M186.89,43.69c3.71,0,7.41,2.31,7.41,7.35s-3.62,7.37-7.39,7.37S179.36,56,179.36,51,183.14,43.64,186.89,43.69ZM187,55.75c2.35-.06,4.87-1.33,4.87-4.71s-2.54-4.65-4.89-4.69-5.13,1.31-5.13,4.69S184.54,55.81,187,55.75Z"/><path class="cls-12" d="M182.1,37.67v4.54h-2.46V30.41h2.46V35H194v2.71Z"/><path class="cls-12" d="M194,16.7V27.43H179.64V16.7h2.62v8h3.3V17h2.52v7.76h3.23v-8Z"/><path class="cls-7" d="M45.12,38.64V151.55h8.34V47h93.42V38.64Z"/><path class="cls-11" d="M318.44,360.63v23.13h-265V361.33H45.12v30.76H326.78V360.63Z"/><path class="cls-7" d="M223.47,38.64V47h95V150.16h8.34V38.64Z"/><path class="cls-11" d="M352.25,266.78v18.84h-11v19.87h-20.1V285.62H274.83v-6.39l45.22-67.94h21.24v55.49ZM321,240l-16.78,26.83h17V240Z"/><path class="cls-2" d="M18.78,324.86c4,0,7.13,2.2,7.13,6.49a6.25,6.25,0,0,1-4.48,6.34l7.53,9H22.62l-6.68-8.64v8.64H11V324.86Zm-2.26,9.7c1.89,0,4.14-.13,4.14-2.86s-2.25-2.87-4.14-2.87h-.58v5.73Z"/><path class="cls-2" d="M42.46,329.23H34.93v4.35h7.21V338H34.93v4.4h7.53v4.37H29.94V324.86H42.46ZM38.3,316.18l2.41,3.05-6.31,3.66-1.49-2Z"/><path class="cls-2" d="M60.18,326.53l-2,4A9,9,0,0,0,53.73,329c-1.69,0-2.6.77-2.6,2s2.07,2.1,4.57,3.16,5.11,3.1,5.11,6c0,5.22-4,7.05-8.24,7.05a12.77,12.77,0,0,1-8.22-2.89l2.49-4.19s2.92,2.47,5.36,2.47c1.08,0,3.15-.11,3.15-2.15,0-1.59-2.33-2.31-4.93-3.61s-4.16-3.34-4.16-5.62c0-4.08,3.6-6.68,7.13-6.68A12.43,12.43,0,0,1,60.18,326.53Z"/><path class="cls-2" d="M80,339c0,5.41-3,8.17-8.54,8.17s-8.53-2.76-8.53-8.17v-14.1h5v12.65c0,3.65,1.11,4.72,3.55,4.72S75,341.16,75,337.51V324.86h5Z"/><path class="cls-2" d="M87.87,342.36H95.4v4.37H82.88V324.86h5Z"/><path class="cls-2" d="M95.11,324.86h15.38v4.37H105.3v17.5h-5v-17.5h-5.2Z"/><path class="cls-2" d="M131,346.73h-5.36L124,342.36h-8.32l-1.62,4.37h-5.36l8.83-21.87h4.62Zm-11.11-15.11h-.06L117.36,338h4.94Z"/><path class="cls-2" d="M129.17,324.86h15.38v4.37h-5.2v17.5h-5v-17.5h-5.2Z"/><path class="cls-2" d="M161.21,326.53l-2,4a9,9,0,0,0-4.43-1.51c-1.7,0-2.6.77-2.6,2s2.07,2.1,4.56,3.16,5.12,3.1,5.12,6c0,5.22-4,7.05-8.25,7.05a12.81,12.81,0,0,1-8.22-2.89l2.5-4.19s2.91,2.47,5.35,2.47c1.09,0,3.16-.11,3.16-2.15,0-1.59-2.33-2.31-4.93-3.61s-4.17-3.34-4.17-5.62c0-4.08,3.61-6.68,7.14-6.68A12.47,12.47,0,0,1,161.21,326.53Z"/><path class="cls-2" d="M179.4,324.86c4.27,0,7.48,2.2,7.48,6.73s-3.21,7-7.48,7h-3v8.11h-5V324.86Zm-1.59,9.78c2,0,3.82-.66,3.82-2.89s-1.86-2.92-3.82-2.92H176.4v5.81Z"/><path class="cls-2" d="M196.91,324.86c4.05,0,7.13,2.2,7.13,6.49a6.25,6.25,0,0,1-4.48,6.34l7.53,9h-6.34l-6.68-8.64v8.64h-5V324.86Zm-2.26,9.7c1.89,0,4.14-.13,4.14-2.86s-2.25-2.87-4.14-2.87h-.58v5.73Z"/><path class="cls-2" d="M218.13,324.46a11.34,11.34,0,0,1,0,22.67c-6.48,0-11-5-11-11.35A11.14,11.14,0,0,1,218.13,324.46Zm0,17.85c4,0,5.62-3.27,5.62-6.53s-1.75-6.52-5.62-6.52-5.65,3.26-5.65,6.52S214,342.31,218.13,342.31Z"/><path class="cls-2" d="M228.15,324.86h5.62l5.52,14.37,5.52-14.37h5.62l-9.18,21.87h-3.92Z"/><path class="cls-2" d="M256.27,346.73h-5V324.86h5Z"/><path class="cls-2" d="M273.77,326.53l-2,4a9.06,9.06,0,0,0-4.43-1.51c-1.7,0-2.6.77-2.6,2s2.07,2.1,4.56,3.16,5.12,3.1,5.12,6c0,5.22-4,7.05-8.25,7.05a12.77,12.77,0,0,1-8.22-2.89l2.49-4.19s2.92,2.47,5.36,2.47c1.09,0,3.15-.11,3.15-2.15,0-1.59-2.33-2.31-4.93-3.61s-4.16-3.34-4.16-5.62c0-4.08,3.6-6.68,7.13-6.68A12.43,12.43,0,0,1,273.77,326.53Z"/><path class="cls-2" d="M286.79,324.46a11.34,11.34,0,0,1,0,22.67c-6.47,0-11-5-11-11.35A11.14,11.14,0,0,1,286.79,324.46Zm0,17.85c4,0,5.63-3.27,5.63-6.53s-1.75-6.52-5.63-6.52-5.65,3.26-5.65,6.52S282.71,342.31,286.79,342.31Z"/><path class="cls-2" d="M305,346.73h-5V324.86h5Z"/><path class="cls-2" d="M316,324.86c4.05,0,7.13,2.2,7.13,6.49a6.25,6.25,0,0,1-4.48,6.34l7.53,9h-6.34l-6.68-8.64v8.64h-5V324.86Zm-2.26,9.7c1.89,0,4.14-.13,4.14-2.86s-2.25-2.87-4.14-2.87h-.58v5.73Z"/><path class="cls-2" d="M339.68,329.23h-7.53v4.35h7.21V338h-7.21v4.4h7.53v4.37H327.16V324.86h12.52Z"/><path class="cls-2" d="M357.4,326.53l-2,4A9,9,0,0,0,351,329c-1.69,0-2.6.77-2.6,2s2.07,2.1,4.57,3.16,5.11,3.1,5.11,6c0,5.22-4,7.05-8.24,7.05a12.77,12.77,0,0,1-8.22-2.89l2.49-4.19s2.92,2.47,5.36,2.47c1.08,0,3.15-.11,3.15-2.15,0-1.59-2.33-2.31-4.93-3.61s-4.16-3.34-4.16-5.62c0-4.08,3.6-6.68,7.13-6.68A12.43,12.43,0,0,1,357.4,326.53Z"/><path class="cls-2" d="M21.82,167.73c6,0,10.51,3.09,10.51,9.47s-4.51,9.88-10.51,9.88H17.61v11.4h-7V167.73Zm-2.24,13.76c2.76,0,5.37-.94,5.37-4.07s-2.61-4.1-5.37-4.1h-2v8.17Z"/><path class="cls-2" d="M50.15,167.73c5.7,0,10,3.09,10,9.13a8.78,8.78,0,0,1-6.3,8.91l10.59,12.71H55.55l-9.39-12.15v12.15h-7V167.73ZM47,181.37c2.64,0,5.81-.18,5.81-4s-3.17-4-5.81-4h-.82v8.05Z"/><path class="cls-2" d="M87.16,173.88H76.57V180H86.71v6.16H76.57v6.18H87.16v6.15H69.56V167.73h17.6Zm-5.85-18.34,3.39,4.29L75.83,165l-2.09-2.87Z"/><path class="cls-2" d="M115.78,170.08,113,175.67a12.71,12.71,0,0,0-6.22-2.12c-2.39,0-3.66,1.08-3.66,2.75s2.91,2.95,6.41,4.44,7.2,4.36,7.2,8.39c0,7.34-5.59,9.91-11.59,9.91A18,18,0,0,1,93.53,195l3.5-5.89s4.1,3.47,7.53,3.47c1.53,0,4.44-.15,4.44-3,0-2.24-3.28-3.25-6.93-5.07s-5.86-4.7-5.86-7.9c0-5.75,5.07-9.4,10-9.4A17.47,17.47,0,0,1,115.78,170.08Z"/><path class="cls-2" d="M130.69,198.48h-7V167.73h7Z"/><path class="cls-2" d="M147.8,167.73a15.38,15.38,0,1,1,0,30.75h-8.91V167.73ZM147,192.22c5.18,0,8.72-3.95,8.76-9.09S152.2,174,147,174H145.9v18.23Z"/><path class="cls-2" d="M187.72,173.88H177.13V180h10.14v6.16H177.13v6.18h10.59v6.15H170.13V167.73h17.59Z"/><path class="cls-2" d="M202.48,198.48h-7V167.73h7l12.23,19.09h.07V167.73h7v30.75h-7L202.55,179.4h-.07Z"/><path class="cls-2" d="M226.26,167.73h21.62v6.15h-7.31v24.6h-7v-24.6h-7.3Z"/><path class="cls-2" d="M261.15,198.48h-7V167.73h7Z"/><path class="cls-2" d="M286.94,173.88H276.35V180h10.14v6.16H276.35v6.18h10.59v6.15h-17.6V167.73h17.6Z"/><path class="cls-2" d="M301.7,192.33h10.58v6.15H294.69V167.73h7Z"/><path class="cls-2" d="M326.48,192.33h10.59v6.15H319.48V167.73h7Z"/><path class="cls-2" d="M361.86,173.88H351.27V180h10.14v6.16H351.27v6.18h10.59v6.15h-17.6V167.73h17.6Z"/></g></g></svg>