<svg id="Calque_1" data-name="Calque 1" xmlns="http://www.w3.org/2000/svg" viewBox="0 0 128.23 116.01"><defs><style>.cls-1{fill:#bfd2fd;}.cls-2{fill:#ffaeb6;}.cls-3{fill:#ff8388;}.cls-4{fill:#ff5d5b;}.cls-5{fill:#d13d3b;}.cls-6{fill:#020000;}.cls-7{fill:#838181;}.cls-8{fill:#30302e;}.cls-9{fill:#1b1b40;}.cls-10{fill:#fff;}.cls-11{fill:#c4c4c4;}.cls-12{fill:#ff6369;}.cls-13{fill:#ff3627;}.cls-14{fill:#ff6f75;}.cls-15{fill:#686881;}.cls-16{fill:#4cc4b8;}.cls-17{fill:#00a19a;}.cls-18{fill:#e6484f;}.cls-19{fill:#3e2520;}.cls-20{fill:#4a90d3;}.cls-21{fill:#1972c7;}.cls-22{fill:#dd7c68;}.cls-23{fill:#b85b42;}.cls-24{fill:#ffac62;}.cls-25{fill:#ea8b24;}.cls-26{fill:#30519a;}.cls-27{fill:#0a3168;}.cls-28{fill:#80a6f2;}.cls-29{fill:#d3d3d3;}.cls-30{fill:#60607a;}.cls-31{fill:#454563;}.cls-32{fill:#7ba5f9;}.cls-33{fill:#5088f7;}.cls-34{fill:#93b3f7;}.cls-35{fill:#bcd0fa;}.cls-36{fill:#183d8e;}</style></defs><path class="cls-1" d="M27.31,95.25a31.44,31.44,0,0,1-10.84-3.53C13.2,89.74,11,85.43,12.7,82c1.41-2.85,4.78-4,7.38-5.84a15,15,0,0,0,6-14.54c-.57-3.2-4.53-9.69-3.24-12.75a8.82,8.82,0,0,1,1.46-2.5c3.95-4.37,14.56-3.74,19-1.6,4,1.93,7.37,3.33,10,4.4h0c6.34,2.57,14.13,2.24,20.54,0,4.22-1.47,9-2.57,13.1-.89a8.65,8.65,0,0,0,2.85.92c1.71,0,3.09-1.3,4.35-2.46,3.14-2.89,7-5.21,11.27-5.62s8.87,1.4,11,5.12a5.79,5.79,0,0,1,.84,3.26c-.21,2.53-2.56,4.27-4.74,5.56s-4.64,2.73-5.31,5.18c-.82,3,1.48,5.93,3.48,8.36a30.81,30.81,0,0,1,5.87,9.83,14.25,14.25,0,0,1-.65,11.19,14,14,0,0,1-7.55,6.06,29.16,29.16,0,0,1-9.74,1.48c-9.9.1-19.77-5.21-29.67-4.86a127.53,127.53,0,0,0-16.07,1.74c-4.59.75-9.33,2.22-14,2.16A76.83,76.83,0,0,1,27.31,95.25Z"/><path class="cls-2" d="M38.4,34.49c0,.34,1.1.72,1.37.78.51.12,1.43,0,1.41-.76,0-.55,0-1-.07-1.52a1.29,1.29,0,0,0-1.35-1,1.57,1.57,0,0,0-1.51,1Z"/><path class="cls-2" d="M38.47,34.4v1.88c0,.29.31.42.56.47s1.3.12,1.29-.49c0-.18,0-1.47,0-1.47Z"/><path class="cls-2" d="M45.71,44.82c.11.07.22.11.38.19s.28.18.24.33c-.07.35-.72,0-.54.39.09.25.31.76.22.89a.33.33,0,0,1-.35.1s-.08.21-.26.23a.63.63,0,0,1-.27-.06A.44.44,0,0,1,45,47c-.18.07-.33-.13-.4-.2l-.09,0c-.18,0-.19-.08-.28-.28s-.13-.48-.22-.7a1.24,1.24,0,0,1-.12-.44.69.69,0,0,1,.17-.52,1.26,1.26,0,0,1,.45-.26,3.2,3.2,0,0,1,.54-.15C45.31,44.45,45.65,44.78,45.71,44.82Z"/><path class="cls-3" d="M45.59,46.76a.52.52,0,0,0,.21,0,.28.28,0,0,0,.23-.15.41.41,0,0,0,0-.31c0-.11-.07-.21-.1-.32l-.12-.39a.09.09,0,0,0-.09-.05.08.08,0,0,0-.05.09c0,.1.06.2.1.3s.06.2.1.3a.75.75,0,0,1,0,.26.16.16,0,0,1-.12.13.29.29,0,0,1-.18,0,.07.07,0,1,0,0,.13Z"/><path class="cls-3" d="M45.07,46.85a.38.38,0,0,0,.24.17.32.32,0,0,0,.33-.12.41.41,0,0,0,0-.36c0-.12-.08-.23-.11-.35l-.14-.36a.07.07,0,0,0-.09,0,.07.07,0,0,0,0,.09c.07.18.13.37.19.55l.06.16c0,.05,0,.11,0,.17a.12.12,0,0,1-.13.13h-.12l0,0-.05,0s0,0,0,0-.17,0-.12.08Z"/><path class="cls-3" d="M44.52,46.8c.07.22.37.43.58.23a.26.26,0,0,0,.07-.17.29.29,0,0,0,0-.13c0-.06,0-.11-.05-.16a1,1,0,0,1,0-.16L44.92,46a.07.07,0,0,0-.14,0c.08.21.14.43.21.64l0,.07v0s0,0,0,0,0,0,0,0v0s0,0,0,0,0,.08-.06.1h-.14l0,0-.06,0a.22.22,0,0,1-.08-.13c0-.08-.17,0-.14,0Z"/><path class="cls-3" d="M44.37,46.17l.12.4a.45.45,0,0,1,0,.16s-.06.06-.08.06-.12-.1-.15-.17a2.8,2.8,0,0,1-.13-.41c0-.08-.16-.05-.14,0s.08.28.13.41a.61.61,0,0,0,.07.14.26.26,0,0,0,.16.13.23.23,0,0,0,.21-.06.15.15,0,0,0,.06-.09.34.34,0,0,0,0-.1,2,2,0,0,0-.1-.35l-.05-.2a.07.07,0,0,0-.14,0Z"/><path class="cls-3" d="M45.61,45.34a.83.83,0,0,1-.67-.58.07.07,0,0,0-.14,0,1,1,0,0,0,.78.67.07.07,0,0,0,.08,0s0-.08,0-.08Z"/><path class="cls-4" d="M41.57,36.18c-1.71-.09.93,6.36,1.73,8.6a.55.55,0,0,0,.58.41c.48-.07,1.83-.47,1.68-.9-.31-1-.67-1.9-1-2.86C43.77,39,43.53,36.28,41.57,36.18Z"/><path class="cls-5" d="M42.21,41.81l.4-.29.63-.47.15-.1a.08.08,0,0,0,0-.1.07.07,0,0,0-.09,0l-.4.3-.63.46-.15.11a.08.08,0,0,0,0,.1.07.07,0,0,0,.1,0Z"/><polygon class="cls-2" points="43.12 56.95 43.15 59.61 40.98 59.58 40.95 56.92 43.12 56.95"/><polygon class="cls-2" points="37.61 56.95 37.64 59.61 35.47 59.58 35.44 56.92 37.61 56.95"/><path class="cls-6" d="M44.21,59.78c-.42-.35-.9-.77-1-.69s-.06.18-.24.19A5.64,5.64,0,0,1,41.62,59l-.9-.22c-.07.6-.14,1.67-.15,1.67l4.12.06a.16.16,0,0,0,.1-.29A7.32,7.32,0,0,1,44.21,59.78Z"/><path class="cls-7" d="M40.58,60.35c0,.09,0,.21,0,.3a.1.1,0,0,0,.1.11c.72,0,3.54,0,4.1,0a.09.09,0,0,0,.09-.08c0-.11,0-.27,0-.3Z"/><path class="cls-8" d="M42.21,42c.17,1.59,1.42,16.37,1.42,16.37h-3.1c-.12-1.28-1.69-14-1.83-15.32C38.46,41,42.13,41.21,42.21,42Z"/><path class="cls-6" d="M43.5,57.7h-3a.07.07,0,0,0,0,.13h2.58c.14,0,.27,0,.41,0h0a.07.07,0,1,0,0-.13Z"/><path class="cls-8" d="M41,42.76c-.29,1.87-.67,3.92-1.07,5.62L38,58.41H34.93l1.27-7.35c.19-1.7.31-2.55.47-3.9.1-.87-.08-1.23,0-2.54a2.21,2.21,0,0,1,2.48-2.31S41.17,42,41,42.76Z"/><path class="cls-6" d="M38.13,57.67h-1l-1.45,0h-.58a.07.07,0,0,0,0,.13h1.2l1.44,0h.37a.06.06,0,1,0,0-.12Z"/><path class="cls-6" d="M38.72,59.78c-.42-.36-.9-.78-1-.69s-.06.17-.24.19A6.37,6.37,0,0,1,36.13,59l-.9-.22c-.07.59-.13,1.66-.15,1.66l4.12.06a.16.16,0,0,0,.1-.29C39.08,60.06,38.9,59.93,38.72,59.78Z"/><path class="cls-7" d="M35.09,60.34c0,.09,0,.22,0,.31a.1.1,0,0,0,.1.1c.72,0,3.54,0,4.1,0a.09.09,0,0,0,.09-.09c0-.11,0-.27,0-.29Z"/><path class="cls-6" d="M40.83,44.54l0,.15-.09.42-.15.61-.17.75-.2.82-.19.82-.19.77-.15.65-.11.47a1.89,1.89,0,0,0,0,.23h0c0,.08.11.12.13,0l0-.15.1-.42.14-.61.18-.75.2-.82.19-.82.18-.77.16-.65.11-.47c0-.08,0-.15.05-.23h0c0-.08-.1-.12-.12,0Z"/><path class="cls-4" d="M36.37,38.37a3.83,3.83,0,0,1,.25-1.58,1.2,1.2,0,0,1,.86-.46,9.55,9.55,0,0,1,1-.19c.07.16.24.45,1,.51a.84.84,0,0,0,.89-.53.09.09,0,0,1,.1,0,5.47,5.47,0,0,1,1.77.27c.68.27.36,2.47.29,4s-.18,3-.18,3a20.35,20.35,0,0,1-2.94.21A22.85,22.85,0,0,1,37,43.43,46.89,46.89,0,0,1,36.37,38.37Z"/><path class="cls-5" d="M42.51,42.23l0-.32-.12-.76-.14-.92-.12-.79,0-.26s0-.09,0-.13h0a.08.08,0,0,0-.09,0,.07.07,0,0,0,0,.08l0,.32.12.76.14.92.12.79,0,.27s0,.08,0,.12h0a.09.09,0,0,0,.09,0,.09.09,0,0,0,0-.09Z"/><path class="cls-9" d="M41.38,31.82a1.86,1.86,0,0,0-.94-.77,2.62,2.62,0,0,0-2.1.18,2,2,0,0,0-1.15,2.33,2.42,2.42,0,0,0,1.28,1.5s0-.14,0-.13l0-.37v-.77l.25-.1a.39.39,0,0,0,.26-.19c.08-.14.23-.63.31-.78a.1.1,0,0,1,0,0s.05,0,.08,0a3.13,3.13,0,0,0,.65.35.26.26,0,0,0,.33-.15.61.61,0,0,1,0-.11,5,5,0,0,0,.77.34c.3.1.51-.21.46-.51A2,2,0,0,0,41.38,31.82Z"/><path class="cls-2" d="M39.08,33.72c.07.61-1,.41-1-.2C38.13,33.07,39,33,39.08,33.72Z"/><path class="cls-3" d="M38.44,33.52a.31.31,0,0,1,.31.21c0,.05.09,0,.08,0a.4.4,0,0,0-.39-.28,0,0,0,0,0,0,0,0,0,0,0,0,0,.05Z"/><rect class="cls-10" x="41.6" y="37.06" width="3.67" height="5.17"/><path class="cls-11" d="M45.35,42.32H41.51V37h3.84Zm-3.67-.17h3.5v-5h-3.5Z"/><path class="cls-2" d="M40.84,40.68a3.78,3.78,0,0,0,.19-.36c0-.11.16-.26.31-.23.33.07,0,.69.37.51.22-.08.71-.28.83-.2a.32.32,0,0,1,.1.33.33.33,0,0,1,.21.24.68.68,0,0,1-.06.25.47.47,0,0,1,.14.16c.06.17-.13.32-.19.38a.22.22,0,0,1,0,.09c0,.17-.08.18-.26.26s-.45.12-.66.21a1.38,1.38,0,0,1-.41.11.69.69,0,0,1-.49-.16,1.16,1.16,0,0,1-.25-.43c0-.12-.1-.34-.14-.51S40.81,40.73,40.84,40.68Z"/><path class="cls-3" d="M42.68,40.8a.71.71,0,0,0,0-.2.3.3,0,0,0-.15-.23.41.41,0,0,0-.29,0c-.1,0-.2.07-.3.1s-.25.07-.37.12a.07.07,0,0,0,0,.08.07.07,0,0,0,.09.05l.28-.09.28-.09a.53.53,0,0,1,.25,0,.14.14,0,0,1,.11.11s0,.11,0,.17a.07.07,0,0,0,.14,0Z"/><path class="cls-3" d="M42.75,41.29a.35.35,0,0,0,.17-.24.31.31,0,0,0-.11-.31.39.39,0,0,0-.35,0l-.32.11-.35.12s-.06,0,0,.09,0,.06.08.05l.52-.19.14,0a.58.58,0,0,1,.16,0c.08,0,.12,0,.13.11a.22.22,0,0,1,0,.08.06.06,0,0,0,0,0h0l-.08.08a.07.07,0,1,0,.07.12Z"/><path class="cls-3" d="M42.71,41.8a.39.39,0,0,0,.25-.22.27.27,0,0,0,0-.33.34.34,0,0,0-.29-.07l-.15,0-.15.05-.42.14a.07.07,0,1,0,0,.13l.6-.19.12,0h.08a.11.11,0,0,1,.09,0,.17.17,0,0,1,0,.12h0l0,0a.1.1,0,0,1,0,0,.27.27,0,0,1-.12.09.07.07,0,1,0,0,.13Z"/><path class="cls-3" d="M42.12,41.94l.37-.11.15,0h0l0,0,0,0s0,0,0,0,0,0,0,0,0,0,0,.05a.1.1,0,0,1,0,0l-.09,0a2.64,2.64,0,0,1-.4.12c-.08,0,0,.16,0,.14a2.55,2.55,0,0,0,.39-.13l.13,0a.3.3,0,0,0,.12-.17.2.2,0,0,0-.06-.19.16.16,0,0,0-.08-.06.21.21,0,0,0-.11,0,1.87,1.87,0,0,0-.32.08l-.18.06a.07.07,0,1,0,0,.13Z"/><path class="cls-4" d="M35.64,37.77a1.85,1.85,0,0,1,1.65-1.39,16.55,16.55,0,0,1,0,2.22c0,.47-.4,3.53-.4,3.53l3.55-1.39.78,1.94-4.59,1.94c-1.56.31-2.21-.49-2.11-2A31,31,0,0,1,35.64,37.77Z"/><path class="cls-5" d="M37.19,39.06l0,.31-.08.73L37,41l-.09.77,0,.25s0,.08,0,.12h0a.08.08,0,0,0,.07.07.07.07,0,0,0,.07-.07l0-.3.08-.73.09-.88.08-.76,0-.25a.49.49,0,0,0,0-.12h0s0-.07-.07-.07-.06,0-.07.07Z"/><path class="cls-5" d="M35.62,41.87l.43.11.68.18.16,0a.07.07,0,0,0,0-.14L36.5,42l-.68-.17-.16,0c-.09,0-.12.11,0,.13Z"/><path class="cls-5" d="M35.14,44.52a1.26,1.26,0,0,0,.84.24,2.2,2.2,0,0,0,.76-.12c.41-.15.82-.33,1.23-.5l1.23-.52,1.35-.57.48-.2.23-.1h0a.06.06,0,0,0,0-.09s-.06,0-.1,0l-.58.25-1.29.54L38,44l-.22.09-.12,0-.15.06-.66.27a3.25,3.25,0,0,1-.61.17,1.85,1.85,0,0,1-.47,0,1.3,1.3,0,0,1-.4-.09l-.16-.1a.08.08,0,0,0-.1,0,.07.07,0,0,0,0,.1Z"/><path class="cls-5" d="M37,42.17l.35-.14.83-.32,1-.4.87-.34.42-.16h0a.09.09,0,0,0,.05-.09.08.08,0,0,0-.09,0l-.34.14-.84.32-1,.4-.87.34L37,42h0a.09.09,0,0,0-.05.09.08.08,0,0,0,.09.05Z"/><path class="cls-3" d="M40.3,35.29a1.88,1.88,0,0,1-1.19-.12c-.06,0-.09.08,0,.1a1.93,1.93,0,0,0,1.23.12c.07,0,0-.12,0-.1Z"/><path d="M40.81,33.41l0,0h0l-.06,0h-.08l0,0a.09.09,0,0,1,0-.05l0,0h.1l.09,0a.06.06,0,0,1,0,.08.05.05,0,0,1-.07,0Z"/><path d="M39.67,33.39h.15s0,0,0,0a0,0,0,0,0,0,0l0,0a.41.41,0,0,0-.11,0l-.09,0s0,.05,0,.08a0,0,0,0,0,.07,0Z"/><path d="M39.86,33.84c0-.25-.22-.33-.28-.05S39.83,34.12,39.86,33.84Z"/><path d="M40.87,33.85c0-.25-.22-.34-.28-.06S40.84,34.13,40.87,33.85Z"/><path class="cls-12" d="M40.41,34.18l0,0a.09.09,0,0,1-.09.07.08.08,0,0,1-.08,0s0-.06,0-.08l.09-.07,0-.09s0,0,0,.06A.34.34,0,0,1,40.41,34.18Z"/><path class="cls-12" d="M39.9,34.59a.48.48,0,0,0,.34.14.57.57,0,0,0,.35-.14c0-.05,0-.13-.08-.08a.39.39,0,0,1-.54,0,0,0,0,1,0-.07.07Z"/><path class="cls-13" d="M66.77,44.51a2.59,2.59,0,1,0,2.59,2.59A2.6,2.6,0,0,0,66.77,44.51ZM69,47.1a2.26,2.26,0,0,1-.55,1.47L66.93,47V44.85A2.26,2.26,0,0,1,69,47.1Zm-2.09.41,1.3,1.29a2.15,2.15,0,0,1-1.3.54Zm-2.42-.41a2.26,2.26,0,0,1,2.09-2.25v4.49A2.25,2.25,0,0,1,64.51,47.1Z"/><polygon class="cls-2" points="30.51 77.33 31.83 88.42 29.44 88.38 27.79 77.73 30.51 77.33"/><polygon class="cls-2" points="27.79 77.73 25.77 88.42 23.37 88.38 24.82 77.73 27.79 77.73"/><polygon class="cls-14" points="25.03 70.6 21.2 84.5 33.14 84.5 30.93 70.57 25.03 70.6"/><path class="cls-15" d="M27.17,57.5a2.89,2.89,0,0,0-2.23.77,1.81,1.81,0,0,0-.73.89c-.1.37.13.86.52.87,0,.21-.28.32-.4.5a.64.64,0,0,0,0,.69,1.26,1.26,0,0,0,.56.46,4.43,4.43,0,0,0,2,.3,1,1,0,0,0,.76-.22Z"/><path class="cls-2" d="M26.37,60.78a3.24,3.24,0,0,0,2.23,1,.86.86,0,0,0,.85-.82,13.36,13.36,0,0,0,.05-1.9,1.48,1.48,0,0,0-1.56-1.11,1.81,1.81,0,0,0-1.74,1.12Z"/><path class="cls-2" d="M26.68,60.67v2.07c0,.32.35.46.61.52.43.1,1.43.13,1.43-.54,0-.2,0-1.61,0-1.61Z"/><path class="cls-2" d="M34.64,72.13a3.92,3.92,0,0,0,.42.22c.13.06.31.19.27.36-.08.38-.8,0-.6.43.1.27.34.83.24,1a.35.35,0,0,1-.38.12s-.09.23-.28.26a.86.86,0,0,1-.3-.07.4.4,0,0,1-.19.15c-.2.07-.37-.14-.43-.22l-.11,0c-.2,0-.21-.09-.31-.31s-.14-.52-.24-.76a1.37,1.37,0,0,1-.13-.49.81.81,0,0,1,.18-.57,1.23,1.23,0,0,1,.51-.29,4.31,4.31,0,0,1,.59-.17C34.2,71.73,34.58,72.09,34.64,72.13Z"/><path class="cls-3" d="M34.51,74.27a.62.62,0,0,0,.23,0,.27.27,0,0,0,.25-.16.47.47,0,0,0,0-.33c0-.13-.08-.24-.12-.36s-.08-.29-.13-.42a.08.08,0,0,0-.09-.05.07.07,0,0,0,0,.08c0,.11.07.22.11.34s.07.21.11.32a.63.63,0,0,1,0,.3.17.17,0,0,1-.13.14.24.24,0,0,1-.12,0l-.09,0c-.09,0-.12.1,0,.13Z"/><path class="cls-3" d="M33.94,74.36a.4.4,0,0,0,.27.19.35.35,0,0,0,.36-.13.49.49,0,0,0,0-.41l-.12-.36c0-.14-.09-.27-.14-.4a.09.09,0,0,0-.09,0,.08.08,0,0,0,0,.09c.08.2.15.41.22.61l.06.18a.61.61,0,0,1,.05.18.15.15,0,0,1-.15.16H34.2s0,0,0,0,0,0,0,0h0l0,0,0,0c0-.08-.16,0-.12.07Z"/><path class="cls-3" d="M33.34,74.31a.55.55,0,0,0,.26.3.32.32,0,0,0,.38,0,.31.31,0,0,0,.07-.18.32.32,0,0,0,0-.14c0-.06,0-.12,0-.18l-.06-.18c0-.16-.1-.32-.16-.48a.07.07,0,0,0-.09-.05.07.07,0,0,0,0,.08c.09.24.16.48.24.72l0,.07v0s0,0,0,0v.1h0a.14.14,0,0,1-.07.11.16.16,0,0,1-.15,0h0l0,0-.06,0a.65.65,0,0,1-.1-.15c0-.09-.16,0-.14,0Z"/><path class="cls-3" d="M33.18,73.62c0,.15.09.3.13.44a.57.57,0,0,1,0,.18s0,0,0,0l0,0-.06,0c-.1,0-.14-.12-.17-.19a3.53,3.53,0,0,1-.15-.46c0-.08-.15,0-.13,0a2.44,2.44,0,0,0,.14.46,1,1,0,0,0,.07.15.34.34,0,0,0,.18.13.23.23,0,0,0,.22-.07.18.18,0,0,0,.07-.1.4.4,0,0,0,0-.11c0-.13-.07-.25-.1-.37l-.07-.21c0-.09-.16,0-.13,0Z"/><path class="cls-3" d="M34.54,72.71a.92.92,0,0,1-.75-.64.07.07,0,0,0-.14,0,1.09,1.09,0,0,0,.85.74s.08,0,.09,0a.08.08,0,0,0-.05-.09Z"/><path class="cls-16" d="M30.09,62.63c-1.88-.1,1,7,1.9,9.46a.61.61,0,0,0,.64.45c.54-.07,2-.51,1.85-1-.34-1.08-.74-2.08-1.09-3.15C32.51,65.75,32.24,62.75,30.09,62.63Z"/><path class="cls-17" d="M30.78,68.81l.44-.32.7-.52.16-.12a.06.06,0,0,0,0-.07.07.07,0,0,0-.07,0l-.44.32-.7.52-.16.12a.06.06,0,0,0,0,.07.06.06,0,0,0,.07,0Z"/><path class="cls-6" d="M32.91,88.65c-.44-.38-1-.83-1.08-.73s-.06.18-.26.2a6.93,6.93,0,0,1-1.4-.29l-1-.23c-.08.63-.14,1.76-.16,1.76l4.36.06a.17.17,0,0,0,.1-.3C33.29,89,33.1,88.81,32.91,88.65Z"/><path class="cls-7" d="M29.07,89.25c0,.08,0,.22,0,.31a.13.13,0,0,0,.11.12c.76,0,3.74,0,4.33,0a.1.1,0,0,0,.1-.09,2.46,2.46,0,0,1,0-.31Z"/><path class="cls-6" d="M27,88.66c-.43-.36-.94-.8-1-.71s-.06.19-.26.2a6.34,6.34,0,0,1-1.36-.28l-.93-.23c-.08.62-.14,1.72-.16,1.72l4.25.06a.17.17,0,0,0,.1-.3A7.09,7.09,0,0,1,27,88.66Z"/><path class="cls-7" d="M23.24,89.25c0,.09,0,.22,0,.31a.1.1,0,0,0,.1.11c.74,0,3.64,0,4.22,0a.1.1,0,0,0,.1-.1,2.37,2.37,0,0,1,0-.3Z"/><path class="cls-18" d="M29.28,71.77l-.15.68c0,.11-.05.23-.07.34l-.08.34-.15.64-.2.82-.21.91-.22.91L28,77.2l-.14.6c0,.09,0,.19-.07.29h0a.06.06,0,1,0,.12,0l0-.2.13-.52.17-.76.22-.89.21-.92.2-.85.17-.69.1-.42c0-.07,0-.14,0-.21l.18-.81,0-.06c0-.08-.11-.11-.13,0Z"/><path class="cls-16" d="M24.37,65a4.42,4.42,0,0,1,.27-1.74,1.31,1.31,0,0,1,.95-.5,9.49,9.49,0,0,1,1.1-.21c.07.18.27.5,1.07.56a.94.94,0,0,0,1-.58s.07,0,.11,0a6.39,6.39,0,0,1,1.95.3c.75.3.39,2.72.32,4.44s-.2,3.3-.2,3.3a21.61,21.61,0,0,1-3.24.24c-1.14,0-2.66-.21-2.66-.21A52.08,52.08,0,0,1,24.37,65Z"/><path class="cls-15" d="M28.12,58.79c-.17.52-.87.69-1.26,1s0,1.35-.24,1.32a1.9,1.9,0,0,1-1.06-.77,1.66,1.66,0,0,1-.24-1.15,2.15,2.15,0,0,1,1.36-1.78,3.3,3.3,0,0,1,1.79,0,1.65,1.65,0,0,1,1.4,1.93c0,.17.27.37-.08.37a1.27,1.27,0,0,1-.7-.25C28.66,59.18,28.12,58.79,28.12,58.79Z"/><path class="cls-2" d="M27.07,60.06c0,.71-1.2.27-1.06-.41C26.12,59.13,27.1,59.2,27.07,60.06Z"/><path class="cls-3" d="M26.39,59.72h.08s0,0,0,0h0l.05,0h0l0,0,0,0h0s0,0,0,0l0,0v0s0,0,0,0V60h0a.06.06,0,0,0,.06.06s.07,0,.07-.06a.5.5,0,0,0-.14-.28.49.49,0,0,0-.28-.13s-.07,0-.06.06a.07.07,0,0,0,.06.07Z"/><path class="cls-17" d="M31.1,69.29,31,68.94l-.13-.83-.15-1-.14-.88,0-.29s0-.09,0-.13h0a.07.07,0,0,0-.07,0,.05.05,0,0,0,0,.07l.05.35.13.84.15,1,.14.88,0,.29s0,.09,0,.14h0a.06.06,0,0,0,.07,0,.07.07,0,0,0,0-.07Z"/><path class="cls-3" d="M28.66,61.73a1.68,1.68,0,0,1-1.08-.1c-.06,0-.09.08,0,.1a1.8,1.8,0,0,0,1.14.11c.06,0,0-.13,0-.11Z"/><rect class="cls-10" x="30.09" y="63.56" width="4.04" height="5.69"/><path class="cls-11" d="M34.21,69.34H30V63.48h4.21Zm-4-.17H34V63.65H30.17Z"/><path class="cls-2" d="M29.29,67.58a2.32,2.32,0,0,0,.2-.39c.06-.12.19-.29.35-.26.36.08,0,.76.4.57.25-.09.78-.32.91-.23a.33.33,0,0,1,.11.36s.22.09.24.27a.64.64,0,0,1-.06.28.42.42,0,0,1,.14.18c.07.18-.14.34-.21.41a.22.22,0,0,1,0,.09c0,.2-.08.2-.29.3s-.49.13-.72.22a1.36,1.36,0,0,1-.45.12.72.72,0,0,1-.54-.17,1.4,1.4,0,0,1-.28-.47c0-.13-.11-.37-.15-.56S29.25,67.64,29.29,67.58Z"/><path class="cls-3" d="M31.3,67.71a.54.54,0,0,0,.05-.22.31.31,0,0,0-.16-.24.44.44,0,0,0-.32,0l-.33.11-.4.12a.08.08,0,0,0-.05.09.08.08,0,0,0,.09,0l.31-.1.31-.11a.8.8,0,0,1,.27,0,.16.16,0,0,1,.13.13.33.33,0,0,1,0,.19c0,.09.11.12.13,0Z"/><path class="cls-3" d="M31.39,68.25a.43.43,0,0,0,.18-.26.32.32,0,0,0-.13-.34c-.13-.07-.25,0-.38,0l-.35.12-.37.13a.08.08,0,0,0-.05.09.08.08,0,0,0,.09,0c.19-.08.38-.14.57-.2l.16-.06.18,0c.08,0,.13,0,.14.13V68s0,0,0,0,0,0,0,0l-.08.09c-.08,0,0,.16.07.12Z"/><path class="cls-3" d="M31.34,68.81a.51.51,0,0,0,.28-.24.3.3,0,0,0,0-.36.26.26,0,0,0-.17-.07.33.33,0,0,0-.14,0l-.16.06-.17,0-.46.15a.08.08,0,0,0-.05.09.07.07,0,0,0,.08.05l.67-.22.07,0h.16a.13.13,0,0,1,.09.07s0,.08,0,.13h0a.05.05,0,0,1,0,0,.1.1,0,0,1,0,0,.28.28,0,0,1-.14.1c-.08,0-.05.16,0,.13Z"/><path class="cls-3" d="M30.69,69l.41-.12.17,0h0l0,0s0,0,0,.06-.11.13-.18.15a3,3,0,0,1-.42.14.07.07,0,0,0,0,.13,3.06,3.06,0,0,0,.43-.13.61.61,0,0,0,.14-.07.23.23,0,0,0,.13-.17.23.23,0,0,0-.06-.21.15.15,0,0,0-.09-.06.2.2,0,0,0-.11,0,2,2,0,0,0-.35.09l-.21.06c-.08,0,0,.16,0,.13Z"/><path class="cls-16" d="M23.57,64.39a2,2,0,0,1,1.81-1.54,18,18,0,0,1,0,2.44c0,.52-.44,3.89-.44,3.89l3.91-1.53.86,2.14-5.05,2.13c-1.72.34-2.43-.54-2.33-2.24A34.82,34.82,0,0,1,23.57,64.39Z"/><path class="cls-17" d="M25.3,65.8l0,.34-.08.8-.11,1-.09.84L25,69s0,.09,0,.13h0s0,0,0,0a0,0,0,0,0,.05,0l0-.34.08-.8.11-1,.09-.84,0-.28s0-.09,0-.13h0a.06.06,0,0,0-.06,0,.05.05,0,0,0-.05,0Z"/><path class="cls-17" d="M23.56,68.87,24,69l.75.2.17,0c.06,0,.09-.08,0-.1L24.51,69l-.75-.2-.18,0c-.06,0-.09.08,0,.1Z"/><path class="cls-17" d="M23,71.79a.86.86,0,0,0,.43.2,1.65,1.65,0,0,0,.49.06,2.28,2.28,0,0,0,.82-.14c.45-.16.9-.35,1.35-.54l1.35-.57L29,70.17l.53-.22.26-.11h0s0,0,0-.07,0,0-.07,0l-.64.27-1.42.6-1.44.61c-.42.18-.84.36-1.27.52a2.64,2.64,0,0,1-.68.19,3,3,0,0,1-.52,0,1.67,1.67,0,0,1-.44-.11.78.78,0,0,1-.18-.11c-.05,0-.13,0-.08.07Z"/><path class="cls-17" d="M25.05,69.2l.39-.15.91-.36,1.11-.43.95-.38.47-.18h0a.06.06,0,0,0,0-.07s0,0-.07,0l-.38.15-.91.35-1.11.44-.95.37-.47.18h0s-.05,0,0,.06,0,0,.06,0Z"/><path d="M29.12,59.86l0,0h0l-.06,0h0l-.06,0h0s0,0,0,0a.08.08,0,0,1,0,0,.05.05,0,0,1,0,0s0,0,.05,0a.18.18,0,0,1,.1,0,.24.24,0,0,1,.08.06.06.06,0,0,1-.09.08Z"/><path d="M27.94,59.85l0,0h0l.06,0h0l.06,0h0l0,0a.07.07,0,0,0,0-.05l0,0h0l-.11,0s-.05,0-.07.06a.06.06,0,0,0,0,.08.08.08,0,0,0,.09,0Z"/><path d="M28.1,60.31c0-.27-.23-.36-.29-.06S28.08,60.6,28.1,60.31Z"/><path d="M29.2,60.31c0-.26-.22-.35-.29-.06S29.18,60.61,29.2,60.31Z"/><path class="cls-12" d="M28.71,60.67a0,0,0,0,1,0,0,.12.12,0,0,1-.1.08.09.09,0,0,1-.08,0s0-.06,0-.08a.73.73,0,0,0,.09-.08c0-.05.05-.09.06-.09s0,0,0,.06A.23.23,0,0,1,28.71,60.67Z"/><path class="cls-12" d="M27.92,60.89a.59.59,0,0,0,.3.32.62.62,0,0,0,.5,0,.06.06,0,1,0-.06-.1.48.48,0,0,1-.64-.25,0,0,0,0,0-.06,0,0,0,0,0,0,0,.06Z"/><path class="cls-12" d="M27.78,60.75l-.15.1s0,0,0,0v0l0,0h0l.14-.1,0,0a0,0,0,0,0,0,0l0,0Z"/><path class="cls-12" d="M29.19,60.87l-.14-.1h0l0,0s0,0,0,0,0,0,0,0l.15.1h0l0,0a0,0,0,0,0,0,0l0,0Z"/><path class="cls-19" d="M101.66,58.86a.25.25,0,0,1,.07-.32,2.14,2.14,0,0,1,2.27-.21,1.9,1.9,0,0,1,.86,1.29,2.37,2.37,0,0,1-.31,1.54,2.3,2.3,0,0,0-.25.46,1.58,1.58,0,0,0,.53,1.39,1.9,1.9,0,0,1,.67,1.36,1.07,1.07,0,0,1-.7.84,1.64,1.64,0,0,1-.85.06.1.1,0,0,1,0-.19.86.86,0,0,0,.46-.48,1,1,0,0,0-.4-1,2.35,2.35,0,0,1-.72-.82,2.64,2.64,0,0,1,0-1.42,1.29,1.29,0,0,0-.25-1.16,7.46,7.46,0,0,1-1.38-1.37Z"/><polygon class="cls-2" points="104.3 85.21 106.91 86.51 108.06 84.11 105.45 82.81 104.3 85.21"/><path class="cls-6" d="M106.59,87.6c-.15-.58-.33-1.26-.19-1.33s.2,0,.3-.15a6.86,6.86,0,0,0,.38-1.43l.21-1c.62.21,1.7.67,1.71.65l-1.93,4.08a.18.18,0,0,1-.33,0C106.69,88.1,106.65,87.86,106.59,87.6Z"/><path class="cls-7" d="M108.89,84.31l.31.12a.11.11,0,0,1,.06.14c-.33.72-1.68,3.49-2,4.05a.11.11,0,0,1-.13,0l-.29-.13Z"/><path class="cls-20" d="M97.3,80.5c-.08,1.34.23,1.87,1.17,2.38,0,0,6.6,2.91,7.09,3.18L107,83.23l-6-2.9.78-8.81c-.17-.7-.09-.93-.73-1l-2,0c-.69-.06-.52.07-.63.58Z"/><path class="cls-21" d="M106.29,83l-.14.27-.33.65-.39.78-.35.67c0,.11-.11.22-.17.33h0c0,.08.07.14.11.07l.14-.27.33-.65.4-.78.34-.67.17-.33h0c0-.08-.07-.14-.11-.07Z"/><path class="cls-21" d="M101,80.26l-.55.17-.89.27-.21.07c-.08,0,0,.14,0,.12l.55-.17.89-.27.21-.06a.07.07,0,0,0,0-.13Z"/><polygon class="cls-2" points="101.81 86.36 101.79 89.27 104.45 89.25 104.47 86.33 101.81 86.36"/><path class="cls-20" d="M100,71l1.44,17h3.38l-.54-12.86c-.15-.94.5-1.5.1-4.18H100Z"/><path class="cls-21" d="M101.45,87.45l1.07,0,1.59,0h.64a.07.07,0,0,0,0-.13h-1.33l-1.57,0h-.4a.07.07,0,1,0,0,.13Z"/><path class="cls-6" d="M100.66,89.46c.46-.39,1-.85,1.12-.76s.06.2.27.21a6.1,6.1,0,0,0,1.45-.29l1-.24c.08.65.15,1.81.17,1.82l-4.51.06A.17.17,0,0,1,100,90C100.27,89.77,100.46,89.63,100.66,89.46Z"/><path class="cls-7" d="M104.63,90.08a1.76,1.76,0,0,1,0,.33.11.11,0,0,1-.1.12c-.79,0-3.87,0-4.49,0a.1.1,0,0,1-.1-.09,2.55,2.55,0,0,0,0-.32Z"/><path class="cls-21" d="M104.43,82.13v.34l0,.81,0,1,0,.84c0,.14,0,.28,0,.41h0c0,.08.13.08.13,0l0-.34,0-.81,0-1,0-.85c0-.14,0-.27,0-.41h0c0-.08-.14-.08-.13,0Z"/><path class="cls-21" d="M99.85,72.71l0,.3.08.82.12,1.22.14,1.48.16,1.62.16,1.64.15,1.53.12,1.3.09.92c0,.15,0,.3,0,.44v0c0,.08.13.08.13,0l0-.3-.08-.82-.12-1.22-.15-1.48-.15-1.62-.16-1.65-.15-1.52-.13-1.3-.09-.92c0-.15,0-.3,0-.44v0c0-.08-.14-.08-.13,0Z"/><path class="cls-2" d="M102.85,61.7a3.24,3.24,0,0,1-2.23,1,.86.86,0,0,1-.85-.82,11,11,0,0,1,0-1.9,1.48,1.48,0,0,1,1.56-1.11A1.83,1.83,0,0,1,103,60Z"/><path class="cls-2" d="M102.54,61.59v2.07c0,.32-.35.46-.61.52-.43.1-1.44.13-1.43-.54,0-.2,0-1.61,0-1.61Z"/><path class="cls-2" d="M94.58,73.05c-.13.08-.25.13-.42.22s-.31.19-.28.36c.09.38.81,0,.6.43-.09.27-.33.83-.24,1a.36.36,0,0,0,.39.12.41.41,0,0,0,.28.26.86.86,0,0,0,.3-.07.41.41,0,0,0,.18.15c.2.07.37-.14.44-.22l.11,0c.2,0,.21-.09.31-.31s.14-.52.24-.76a2,2,0,0,0,.13-.48.79.79,0,0,0-.19-.58,1.2,1.2,0,0,0-.5-.29,4.31,4.31,0,0,0-.59-.17C95,72.65,94.64,73,94.58,73.05Z"/><path class="cls-3" d="M94.67,75.06l-.08,0a.16.16,0,0,1-.1,0,.19.19,0,0,1-.1,0,.14.14,0,0,1,0-.08.39.39,0,0,1,0-.28c0-.11.07-.22.1-.33s.08-.25.13-.38a.07.07,0,0,0,0-.08.07.07,0,0,0-.09,0l-.12.37c0,.12-.09.24-.12.36a.65.65,0,0,0,0,.34.33.33,0,0,0,.23.2.51.51,0,0,0,.27,0c.09,0,0-.16,0-.13Z"/><path class="cls-3" d="M95.15,75.21a.18.18,0,0,1-.07.08l0,0s0,0,0,0l-.09,0c-.08,0-.18,0-.19-.12a.32.32,0,0,1,0-.17l.06-.18c0-.11.07-.21.11-.31a3.62,3.62,0,0,1,.13-.35.08.08,0,0,0,0-.09.09.09,0,0,0-.09,0c-.09.24-.17.48-.25.72s-.12.27-.07.41a.32.32,0,0,0,.31.18.41.41,0,0,0,.33-.2c0-.07-.07-.15-.12-.07Z"/><path class="cls-3" d="M95.74,75.2a.37.37,0,0,1-.2.21h-.13a.14.14,0,0,1-.09-.09s0-.06,0-.11v0h0v0l0-.07a3,3,0,0,1,.1-.32c0-.15.09-.29.14-.44s0-.07,0-.08a.07.07,0,0,0-.09,0c-.1.26-.17.53-.26.79a.38.38,0,0,0,0,.33.31.31,0,0,0,.37.11.51.51,0,0,0,.29-.32c0-.08-.1-.12-.13,0Z"/><path class="cls-3" d="M95.9,74.51l-.05.19a2.07,2.07,0,0,0-.1.33.28.28,0,0,0,0,.22.3.3,0,0,0,.21.13.28.28,0,0,0,.2-.1.46.46,0,0,0,.09-.15,4.16,4.16,0,0,0,.16-.5c0-.09-.12-.12-.14,0a3.31,3.31,0,0,1-.12.42l-.06.13a.15.15,0,0,1-.1.09h-.06a.15.15,0,0,1-.06,0s0,0,0,0v0l0-.1a2.45,2.45,0,0,1,.08-.29l.06-.2c0-.08-.11-.12-.14,0Z"/><path class="cls-3" d="M94.72,73.77a1.06,1.06,0,0,0,.84-.74c0-.08-.11-.12-.13,0a.94.94,0,0,1-.75.63.08.08,0,0,0-.05.09s.05,0,.09,0Z"/><path class="cls-16" d="M99.12,63.55c1.89-.1-1,7-1.9,9.46a.59.59,0,0,1-.63.45c-.54-.07-2-.51-1.85-1,.33-1.08.74-2.08,1.09-3.15C96.71,66.67,97,63.67,99.12,63.55Z"/><path class="cls-17" d="M98.49,69.64l-.44-.32-.7-.52-.16-.12a.06.06,0,0,0-.07,0,0,0,0,0,0,0,.07l.44.33.69.51.16.12a.08.08,0,0,0,.08,0,.06.06,0,0,0,0-.07Z"/><path class="cls-16" d="M104.85,66a4.42,4.42,0,0,0-.27-1.74,1.33,1.33,0,0,0-1-.5,9.77,9.77,0,0,0-1.09-.21c-.08.18-.27.5-1.08.56a.93.93,0,0,1-1-.58.11.11,0,0,0-.11,0,6.2,6.2,0,0,0-2,.29c-.75.3-.39,2.72-.32,4.44s.2,3.3.2,3.3a21.55,21.55,0,0,0,3.23.24,26.42,26.42,0,0,0,2.66-.21A54.16,54.16,0,0,0,104.85,66Z"/><path class="cls-17" d="M98.22,70.24l.06-.35.13-.84.15-1,.14-.88.06-.43h0a.06.06,0,0,0,0-.07s-.06,0-.06,0l0,.35-.13.84-.16,1-.13.87c0,.14,0,.29-.07.43h0a.07.07,0,0,0,0,.07,0,0,0,0,0,.06,0Z"/><path class="cls-3" d="M100.53,62.76a1.8,1.8,0,0,0,1.14-.11c.06,0,0-.12,0-.1a1.68,1.68,0,0,1-1.08.1.06.06,0,0,0,0,.11Z"/><rect class="cls-10" x="95.09" y="64.49" width="4.04" height="5.69"/><path class="cls-11" d="M99.22,70.26H95V64.4h4.21Zm-4-.17h3.88V64.57H95.17Z"/><path class="cls-2" d="M99.93,68.5a2.32,2.32,0,0,1-.2-.39c-.06-.12-.19-.29-.35-.26-.36.08,0,.76-.4.57-.25-.09-.79-.32-.92-.23a.33.33,0,0,0-.11.36.42.42,0,0,0-.24.27.78.78,0,0,0,.07.28.5.5,0,0,0-.15.18c-.06.18.14.34.21.41a.66.66,0,0,0,0,.1c0,.19.09.19.3.29s.49.13.72.22a1.36,1.36,0,0,0,.45.12.72.72,0,0,0,.54-.17,1.23,1.23,0,0,0,.27-.47,4.32,4.32,0,0,0,.16-.56C100.3,68.92,100,68.56,99.93,68.5Z"/><path class="cls-3" d="M98.05,68.59a.19.19,0,0,1,0-.07.37.37,0,0,1,0-.09.16.16,0,0,1,.11-.15.58.58,0,0,1,.26,0l.3.1.36.12a.08.08,0,0,0,.09,0,.09.09,0,0,0,0-.09l-.35-.11-.34-.11a.53.53,0,0,0-.33,0,.34.34,0,0,0-.18.21.61.61,0,0,0,0,.27.07.07,0,0,0,.14,0Z"/><path class="cls-3" d="M97.9,69.05,97.82,69v0h0s0,0,0,0,0-.05,0-.07,0-.17.11-.18a.29.29,0,0,1,.16,0l.17,0,.29.1.33.12a.08.08,0,0,0,.09,0,.09.09,0,0,0-.05-.09c-.22-.09-.45-.16-.68-.23a.63.63,0,0,0-.38-.07.32.32,0,0,0-.18.3.42.42,0,0,0,.19.32c.08,0,.15-.08.07-.12Z"/><path class="cls-3" d="M97.91,69.6a.41.41,0,0,1-.2-.19h0s0,0,0,0,0,0,0-.06a.13.13,0,0,1,.07-.09h.15l.07,0,.3.09.41.14a.08.08,0,0,0,.09,0,.08.08,0,0,0-.05-.09c-.25-.09-.5-.16-.76-.24a.37.37,0,0,0-.31,0,.31.31,0,0,0-.09.36.5.5,0,0,0,.3.27c.08,0,.12-.11,0-.13Z"/><path class="cls-3" d="M98.56,69.75l-.18,0-.32-.1a.3.3,0,0,0-.21,0,.27.27,0,0,0-.11.2.28.28,0,0,0,.09.19.36.36,0,0,0,.15.08,2.47,2.47,0,0,0,.46.15c.09,0,.13-.11,0-.13A2.4,2.4,0,0,1,98.1,70l-.13,0a.14.14,0,0,1-.08-.09.06.06,0,0,1,0-.06.1.1,0,0,1,0-.05s0,0,0,0h0l.09,0,.27.08.19,0c.08,0,.12-.11,0-.13Z"/><path class="cls-16" d="M105.65,65.31a2,2,0,0,0-1.82-1.54,17,17,0,0,0,0,2.44c0,.52.43,3.89.43,3.89l-3.9-1.53-.86,2.14,5.05,2.13c1.72.34,2.43-.54,2.33-2.24A34.82,34.82,0,0,0,105.65,65.31Z"/><path class="cls-17" d="M103.81,66.72l0,.34.08.8.11,1,.09.84c0,.13,0,.27.05.4h0a0,0,0,0,0,0,0,.05.05,0,0,0,0,0l0-.34-.08-.8-.11-1-.09-.84c0-.14,0-.27,0-.41h0s0,0-.06,0a.06.06,0,0,0,0,0Z"/><path class="cls-17" d="M105.63,69.69l-.47.12-.75.19-.17,0a.05.05,0,1,0,0,.1l.47-.12.75-.19.17,0a.05.05,0,1,0,0-.1Z"/><path class="cls-17" d="M106.11,72.64a.89.89,0,0,1-.41.18,2.07,2.07,0,0,1-.5.05,2.5,2.5,0,0,1-.76-.15c-.45-.16-.88-.35-1.31-.53l-1.37-.58L100.31,71l-.78-.32h0a.06.06,0,0,0-.08,0,.06.06,0,0,0,0,.07l.66.28,1.44.61,1.44.61c.43.18.86.37,1.3.53l.28.1A2.17,2.17,0,0,0,105,73a2.26,2.26,0,0,0,.52,0,1.57,1.57,0,0,0,.47-.13.57.57,0,0,0,.18-.12c.06,0,0-.12-.07-.07Z"/><path class="cls-17" d="M104.19,70l-.38-.15-.91-.36-1.11-.44-1-.37-.31-.12-.15-.06h0s-.06,0-.06,0a.06.06,0,0,0,0,.07l.39.15.91.35,1.11.44,1,.37.32.13.15.06h0a.06.06,0,0,0,.07,0s0,0,0-.06Z"/><path class="cls-19" d="M101.37,59.82c.63,1.15,1.17.83,1.17,1.77,0,.27,0,.64,0,.64,1.34-.53,1.07-2.56.08-3.27-2-1.42-4.67,1-3.14,2.95.16.2.23.22.23.22a1.39,1.39,0,0,1,.11-1.34C100.12,60.48,100.6,60.58,101.37,59.82Z"/><path class="cls-2" d="M102,61c0,.71,1.2.27,1.06-.41C103,60.05,102,60.12,102,61Z"/><path class="cls-3" d="M102.68,60.51a.49.49,0,0,0-.28.13.5.5,0,0,0-.14.28s0,.06.07.06,0,0,.06-.06h0v-.06h0v0l0,0s0,0,0,0h0l0,0,0,0h0l0,0h.1s.06,0,.06-.06a.07.07,0,0,0-.06-.07Z"/><path d="M100.08,60.77l0,0h0l.06,0h.09a.08.08,0,0,0,0,0,.06.06,0,0,0,0,0s0,0,0,0h-.12a.18.18,0,0,0-.09,0,.06.06,0,0,0,0,.08.06.06,0,0,0,.08,0Z"/><path d="M101.31,60.75h0l-.07,0h-.08a.06.06,0,0,1,0-.08l0,0h.11l.09,0a.05.05,0,0,1,0,.07s0,.05-.08,0Z"/><path d="M101.12,61.23c0-.27.23-.36.29-.06S101.14,61.52,101.12,61.23Z"/><path d="M100,61.23c0-.26.23-.35.29-.06S100,61.53,100,61.23Z"/><path class="cls-12" d="M100.5,61.59l0,0a.12.12,0,0,0,.09.08.13.13,0,0,0,.09,0s0-.07,0-.09a.36.36,0,0,1-.09-.08l-.06-.09s0,0,0,.06S100.49,61.55,100.5,61.59Z"/><path class="cls-12" d="M101.2,61.79a.51.51,0,0,1-.65.25,0,0,0,0,0-.07,0,.06.06,0,0,0,0,.08.6.6,0,0,0,.49,0,.61.61,0,0,0,.31-.32s0-.05,0-.06-.05,0-.06,0Z"/><path class="cls-22" d="M88.89,35.12c-.14.53-1.6.58-1.83.55s-.88-.26-.88-.86,0-1,0-1.56a1.31,1.31,0,0,1,1.38-1,1.61,1.61,0,0,1,1.31.6,1,1,0,0,1,.21.69Z"/><path class="cls-22" d="M88.89,34.68v1.93c0,.3-.32.43-.57.49-.4.09-1.33.12-1.33-.51,0-.18,0-1.5,0-1.5Z"/><path class="cls-22" d="M81.48,45.36c-.12.07-.23.11-.39.19s-.29.19-.26.35c.08.35.75,0,.56.4-.09.24-.31.77-.22.9a.33.33,0,0,0,.36.11.4.4,0,0,0,.26.24.78.78,0,0,0,.28-.07.53.53,0,0,0,.17.15c.19.06.34-.14.41-.21l.09,0c.19,0,.2-.09.29-.29s.14-.49.23-.71a1.36,1.36,0,0,0,.12-.45.72.72,0,0,0-.17-.53,1.25,1.25,0,0,0-.47-.28c-.13,0-.36-.11-.55-.15S81.54,45.32,81.48,45.36Z"/><path class="cls-23" d="M81.56,47.21l-.07,0-.09,0a.14.14,0,0,1-.14-.11.43.43,0,0,1,0-.25l.1-.3c0-.12.07-.24.11-.36a.06.06,0,0,0,0-.08s-.07,0-.08,0-.08.24-.11.35a3.38,3.38,0,0,0-.11.34.5.5,0,0,0,0,.32.28.28,0,0,0,.21.18.47.47,0,0,0,.26,0,.07.07,0,0,0,0-.14Z"/><path class="cls-23" d="M82,47.36l0,0,0,0h0l-.07,0c-.08,0-.17,0-.18-.12a.42.42,0,0,1,0-.15l0-.17c0-.09.06-.19.1-.28a2.19,2.19,0,0,1,.12-.33s0-.08,0-.08-.07,0-.09,0c-.09.22-.16.45-.23.67a.63.63,0,0,0-.07.38.32.32,0,0,0,.3.18.38.38,0,0,0,.31-.19c.05-.07-.07-.14-.12-.07Z"/><path class="cls-23" d="M82.56,47.35a.35.35,0,0,1-.18.2h0s0,0,0,0h-.1l-.05,0a.13.13,0,0,1,0,0,.2.2,0,0,1,0-.11v0h0a.64.64,0,0,1,0-.07l.09-.3c0-.14.09-.28.14-.41a.07.07,0,0,0,0-.09.06.06,0,0,0-.08.05c-.1.25-.16.5-.25.75a.37.37,0,0,0,0,.31.29.29,0,0,0,.35.09.51.51,0,0,0,.27-.29.07.07,0,1,0-.13,0Z"/><path class="cls-23" d="M82.71,46.71l0,.18a1.58,1.58,0,0,0-.09.31.22.22,0,0,0,.21.32.27.27,0,0,0,.19-.08.55.55,0,0,0,.08-.15,4.11,4.11,0,0,0,.15-.46c0-.09-.12-.13-.14,0s-.07.26-.11.38-.06.18-.15.21a.09.09,0,0,1-.1-.05h0v0s0-.06,0-.09.05-.18.08-.27l0-.18c0-.08-.11-.12-.13,0Z"/><path class="cls-23" d="M81.61,46a1,1,0,0,0,.79-.69.07.07,0,1,0-.13,0,.87.87,0,0,1-.7.59s-.06,0,0,.09,0,.05.09.05Z"/><path class="cls-24" d="M85.71,36.51c1.75-.09-.95,6.52-1.77,8.81a.57.57,0,0,1-.59.42c-.5-.07-1.88-.48-1.72-.93.31-1,.69-1.94,1-2.92C83.46,39.42,83.71,36.62,85.71,36.51Z"/><path class="cls-25" d="M85.13,42.16l-.41-.3-.65-.48-.15-.11a.07.07,0,0,0-.09,0,.08.08,0,0,0,0,.1l.41.3.65.48.15.11a.08.08,0,0,0,.1,0,.07.07,0,0,0,0-.09Z"/><polygon class="cls-22" points="84.12 57.78 84.1 60.51 86.32 60.48 86.35 57.75 84.12 57.78"/><polygon class="cls-22" points="89.77 57.78 89.74 60.51 91.97 60.48 92 57.75 89.77 57.78"/><path class="cls-6" d="M83,60.69c.43-.37.93-.8,1-.71s.06.18.26.19a5.93,5.93,0,0,0,1.35-.27l.92-.23c.08.61.14,1.7.16,1.71l-4.22.06a.17.17,0,0,1-.1-.3C82.64,61,82.82,60.85,83,60.69Z"/><path class="cls-7" d="M86.73,61.27c0,.08,0,.21,0,.31a.1.1,0,0,1-.1.1c-.74,0-3.62,0-4.2,0a.11.11,0,0,1-.1-.09v-.3Z"/><path class="cls-26" d="M85.06,42.52c-.17,1.62-1.46,16.76-1.46,16.76h3.18c.12-1.31,1.73-14.36,1.88-15.7C88.9,41.4,85.15,41.66,85.06,42.52Z"/><path class="cls-27" d="M83.73,58.68H86.8a.06.06,0,0,0,0-.12H84.16c-.14,0-.28,0-.42,0h0a.06.06,0,0,0,0,.12Z"/><path class="cls-26" d="M86.26,43.25c.3,1.92.68,4,1.09,5.76l2,10.27h3.16l-1.29-7.53c-.2-1.74-.33-2.61-.48-4-.11-.89.07-1.27,0-2.6a2.28,2.28,0,0,0-2.54-2.38S86.13,42.43,86.26,43.25Z"/><path class="cls-27" d="M89.23,58.65h1l1.48,0h.59a.06.06,0,1,0,0-.12H91.09l-1.48,0h-.38a.07.07,0,0,0,0,.13Z"/><path class="cls-6" d="M88.63,60.68c.43-.37.93-.8,1-.71s.06.18.26.2a6.18,6.18,0,0,0,1.35-.28l.92-.23c.08.61.14,1.71.16,1.71l-4.22.06a.17.17,0,0,1-.1-.3C88.26,61,88.44,60.84,88.63,60.68Z"/><path class="cls-7" d="M92.35,61.26c0,.09,0,.22,0,.31a.1.1,0,0,1-.1.11c-.74,0-3.62,0-4.2,0a.09.09,0,0,1-.09-.09c0-.1,0-.27,0-.3Z"/><path class="cls-27" d="M86.35,45.11l0,.16.11.42.14.63.18.76.2.84.2.85.19.79.16.66.11.48c0,.08,0,.16,0,.23h0a.06.06,0,1,0,.12,0l0-.16-.1-.42-.15-.63-.18-.77-.2-.84-.2-.84-.18-.79-.16-.67-.11-.48-.06-.22h0a.06.06,0,0,0-.12,0Z"/><path class="cls-24" d="M91,38.75a4,4,0,0,0-.25-1.61,1.21,1.21,0,0,0-.89-.47,10.09,10.09,0,0,0-1-.2c-.07.17-.25.47-1,.53a.86.86,0,0,1-.91-.55.11.11,0,0,0-.11,0,5.55,5.55,0,0,0-1.81.28c-.7.28-.37,2.52-.3,4.13s.19,3.07.19,3.07a20.13,20.13,0,0,0,3,.22,22.64,22.64,0,0,0,2.48-.19A47.81,47.81,0,0,0,91,38.75Z"/><path class="cls-25" d="M84.89,42.74l0-.32.12-.78.15-.94.12-.81.06-.4h0a.07.07,0,0,0-.05-.08.07.07,0,0,0-.09.05l-.05.32-.12.78-.15.94-.12.82-.06.39h0a.07.07,0,0,0,0,.08s.08,0,.08,0Z"/><path class="cls-23" d="M87,35.72a2.09,2.09,0,0,0,.56,0,3.32,3.32,0,0,0,.55-.09.05.05,0,1,0,0-.1,3,3,0,0,1-.52.08,1.87,1.87,0,0,1-.53,0,.05.05,0,1,0,0,.1Z"/><rect class="cls-10" x="81.93" y="37.41" width="3.76" height="5.3"/><path class="cls-11" d="M85.77,42.79H81.84V37.33h3.93ZM82,42.63H85.6V37.5H82Z"/><path class="cls-22" d="M86.46,41.12c-.07-.11-.11-.21-.19-.36s-.17-.28-.32-.24c-.33.07,0,.7-.38.52-.23-.08-.72-.29-.84-.21a.32.32,0,0,0-.11.34s-.2.08-.22.25a.75.75,0,0,0,.06.26.47.47,0,0,0-.14.16c-.06.18.13.32.2.38l0,.09c0,.18.08.19.28.28s.45.12.67.21a1.36,1.36,0,0,0,.42.11.67.67,0,0,0,.5-.16,1.14,1.14,0,0,0,.25-.44c0-.12.11-.35.15-.52S86.49,41.18,86.46,41.12Z"/><path class="cls-23" d="M84.72,41.2l0-.06a.29.29,0,0,1,0-.09.11.11,0,0,1,0-.08.18.18,0,0,1,.07,0,.37.37,0,0,1,.23,0l.29.09.33.11a.07.07,0,0,0,.09,0,.08.08,0,0,0,0-.09l-.33-.1a3,3,0,0,0-.32-.1.44.44,0,0,0-.3,0,.29.29,0,0,0-.17.2.52.52,0,0,0,0,.25.07.07,0,0,0,.14,0Z"/><path class="cls-23" d="M84.57,41.62a.25.25,0,0,1-.1-.17.13.13,0,0,1,.1-.16.4.4,0,0,1,.15,0l.15.06.27.09.31.11a.07.07,0,0,0,.08,0,.08.08,0,0,0,0-.09c-.2-.08-.42-.15-.63-.22a.57.57,0,0,0-.36-.06.29.29,0,0,0-.16.29.37.37,0,0,0,.17.29.07.07,0,1,0,.07-.12Z"/><path class="cls-23" d="M84.59,42.13A.32.32,0,0,1,84.4,42h0a0,0,0,0,1,0,0v-.06a.14.14,0,0,1,.07-.08h.13s0,0,0,0l.06,0,.28.09c.13,0,.25.08.38.12a.07.07,0,0,0,.09,0,.07.07,0,0,0,0-.08c-.23-.09-.47-.15-.71-.23a.37.37,0,0,0-.29,0,.28.28,0,0,0-.09.34.48.48,0,0,0,.28.26c.09,0,.12-.11,0-.14Z"/><path class="cls-23" d="M85.19,42.28,85,42.23c-.1,0-.19-.07-.29-.09s-.14,0-.2,0a.23.23,0,0,0-.11.18.27.27,0,0,0,.08.19l.14.07a2.25,2.25,0,0,0,.44.14c.09,0,.12-.11,0-.13l-.36-.11c-.06,0-.16,0-.19-.13v0l0,0h.05l.09,0,.25.07.16,0a.07.07,0,1,0,0-.13Z"/><path class="cls-24" d="M91.78,38.14a1.9,1.9,0,0,0-1.68-1.43,15.72,15.72,0,0,0,0,2.28c0,.48.41,3.62.41,3.62l-3.64-1.43-.8,2,4.7,2c1.6.31,2.27-.51,2.17-2.09A32.39,32.39,0,0,0,91.78,38.14Z"/><path class="cls-25" d="M90.05,39.47l0,.31.08.74.1.9.08.78c0,.13,0,.25,0,.38h0s0,.07.07.07.08,0,.07-.07l0-.31-.08-.75-.1-.9-.08-.78c0-.13,0-.25,0-.38h0a.07.07,0,0,0-.07-.07.08.08,0,0,0-.07.07Z"/><path class="cls-25" d="M91.77,42.2l-.44.12-.7.18-.16,0c-.09,0,0,.16,0,.14l.43-.12.7-.18.16,0c.09,0,0-.16,0-.14Z"/><path class="cls-25" d="M92.2,45a.84.84,0,0,1-.37.17,2.28,2.28,0,0,1-.45,0,2.13,2.13,0,0,1-.71-.13L90,44.77l-.56-.24L88.19,44l-1.37-.58-.72-.31h0s-.08,0-.1,0,0,.08,0,.09l.61.26,1.35.57,1.34.57c.4.17.8.34,1.21.49a1.34,1.34,0,0,0,.26.09,1.86,1.86,0,0,0,.41.08,1.8,1.8,0,0,0,.92-.12.57.57,0,0,0,.18-.12s0-.07,0-.1a.09.09,0,0,0-.1,0Z"/><path class="cls-25" d="M90.43,42.51l-.35-.14L89.23,42l-1-.41-.89-.35L87,41.17l-.14-.06h0a.08.08,0,0,0-.09,0,.09.09,0,0,0,0,.09l.36.14.85.33,1,.4.89.35.29.12.14,0h0s.07,0,.08,0a.07.07,0,0,0,0-.09Z"/><path class="cls-9" d="M90.06,32.4a.71.71,0,0,0-.91-.43.94.94,0,0,0-1-.91c-.24,0-.51.19-.48.43a.93.93,0,0,0-1-.36.83.83,0,0,0-.56.69.78.78,0,0,0-.55,1.07.83.83,0,0,0,.69.47.92.92,0,0,0,.76-.3,1.11,1.11,0,0,0,1.46.18.42.42,0,0,0,.37.59.38.38,0,0,0-.15.4.37.37,0,0,0,.33.28.78.78,0,0,0,.76-.47.9.9,0,0,0-.06-.89A.71.71,0,0,0,90.06,32.4Z"/><path class="cls-22" d="M88.47,34c-.07.62,1,.41,1-.21S88.57,33.19,88.47,34Z"/><path class="cls-23" d="M89.13,33.65a.4.4,0,0,0-.4.28s.06.07.08,0a.34.34,0,0,1,.32-.22s0,0,0,0a0,0,0,0,0,0,0Z"/><path d="M86.61,33.76h0l.06,0h0s0,0,0,0a.05.05,0,0,0,0,0,.06.06,0,0,0,0,0l0,0h-.1a.19.19,0,0,0-.08,0,.05.05,0,0,0,0,.08,0,0,0,0,0,.07,0Z"/><path d="M87.69,33.75h-.11s0,0,0,0,0,0,0,0a0,0,0,0,1,0,0l0,0a.33.33,0,0,1,.1,0l.08,0a.05.05,0,0,1,0,.07.06.06,0,0,1-.07,0Z"/><path d="M87.51,34.17c0-.24.21-.32.26-.05S87.53,34.44,87.51,34.17Z"/><path d="M86.56,34.18c0-.24.2-.32.26-.06S86.58,34.44,86.56,34.18Z"/><path class="cls-23" d="M87,34.49a0,0,0,0,1,0,0s0,.07.09.07a.12.12,0,0,0,.08,0s0-.06,0-.08a.27.27,0,0,1-.08-.07s0-.08-.06-.08,0,0,0,.06A.28.28,0,0,0,87,34.49Z"/><path class="cls-10" d="M87,34.75h.14a1.94,1.94,0,0,0,.33-.07.3.3,0,0,1,.21,0,.19.19,0,0,1,.1.21.21.21,0,0,1-.18.17,1.14,1.14,0,0,1-.41.07.39.39,0,0,1-.29-.09.17.17,0,0,1,0-.23A.23.23,0,0,1,87,34.75Z"/><rect class="cls-28" x="23.93" y="46.35" width="7.56" height="7.56" rx="1.43"/><polygon class="cls-28" points="27.7 55.34 28.8 52.95 26.6 52.95 27.7 55.34"/><rect class="cls-10" x="25.62" y="49.66" width="0.98" height="0.94"/><rect class="cls-10" x="28.8" y="49.66" width="0.98" height="0.94"/><rect class="cls-10" x="27.21" y="49.66" width="0.98" height="0.94"/><rect class="cls-10" x="98.07" y="26.17" width="3.51" height="4.95"/><path class="cls-11" d="M101.66,31.2H98V26.08h3.68ZM98.15,31h3.35V26.25H98.15Z"/><path class="cls-2" d="M108.41,47.27c.84.42,2.88,1.46,3.12,1.63l1-2a31.54,31.54,0,0,0-3-1.85Z"/><path class="cls-8" d="M102.29,42.87A2.76,2.76,0,0,0,103.82,45l.05,0c1.9,1,6.18,3.27,6.57,3.5L111.68,46c-.72-.49-3.72-2.1-5-2.89a2,2,0,0,1-.89-1.2l.21-4.79-.9-.15-1.2-.06h-1Z"/><path class="cls-6" d="M111.43,49.78c-.12-.49-.26-1.06-.14-1.12s.16,0,.25-.12a6,6,0,0,0,.33-1.2l.19-.83c.52.19,1.42.57,1.42.56l-1.65,3.41a.14.14,0,0,1-.27,0A6.42,6.42,0,0,0,111.43,49.78Z"/><path class="cls-7" d="M113.39,47a2,2,0,0,1,.26.1.09.09,0,0,1,0,.12c-.28.6-1.44,2.92-1.67,3.38a.08.08,0,0,1-.11,0l-.24-.12Z"/><path class="cls-6" d="M111,45.66c-.3.63-.61,1.25-.91,1.88l-.25.54a.06.06,0,0,0,0,.09.07.07,0,0,0,.09,0c.29-.63.6-1.26.9-1.88.08-.19.17-.37.25-.55a.07.07,0,0,0,0-.09.06.06,0,0,0-.08,0Z"/><path class="cls-2" d="M102.34,48.18s-.64,3.17-.72,3.46l2.23.23s1-3.18,1-3.46Z"/><path class="cls-8" d="M106.91,36.51c-.83-.07-1.86-.25-1.86-.25-.46,1.45-1.37,6.39-1.67,7.47l-1.88,7,2.89.32,2-5.42c.41-1,.8-2.73,1.29-4.16.13-.37.43-.88.53-1.2a5.32,5.32,0,0,0-.23-3.54Z"/><path class="cls-6" d="M100.75,51.86c.41-.29.9-.63,1-.54s0,.17.21.2a5.93,5.93,0,0,0,1.24-.13l.84-.12c0,.55,0,1.53,0,1.54l-3.78-.33a.15.15,0,0,1-.06-.27A6.16,6.16,0,0,0,100.75,51.86Z"/><path class="cls-7" d="M104,52.71c0,.08,0,.2,0,.28a.09.09,0,0,1-.09.09c-.67,0-3.24-.31-3.76-.36a.08.08,0,0,1-.07-.09c0-.09,0-.24,0-.26Z"/><path class="cls-6" d="M104.65,38l0,.17-.11.48-.17.69-.2.85-.22.94-.22.94-.21.88-.17.74-.13.53-.06.25v0c0,.07.1.11.12,0l0-.17.11-.48.17-.69.2-.86.22-.93.22-.94.21-.88.17-.74.13-.53.06-.26h0a.06.06,0,0,0-.12,0Z"/><path class="cls-6" d="M106.61,38.8c.21.52.43,1,.66,1.54l.2.44a.07.07,0,1,0,.11-.07c-.23-.5-.46-1-.67-1.51-.06-.15-.12-.29-.17-.43s0-.06-.08-.05a.07.07,0,0,0,0,.08Z"/><path class="cls-6" d="M107,43.41l-.09.27-.21.66-.26.81-.23.69c0,.11-.08.22-.11.34h0a.06.06,0,0,0,.12,0l.09-.27.22-.66.26-.81.23-.69c0-.11.07-.22.11-.34h0c0-.08-.1-.11-.13,0Z"/><path class="cls-6" d="M104.54,50.43l-2.19-.3-.62-.09s-.07,0-.08.05a.07.07,0,0,0,0,.08l2.2.3.62.08a.06.06,0,0,0,.07,0s0-.08,0-.08Z"/><path class="cls-2" d="M101.08,30.79c.06-.07.2-.2.13-.37a.22.22,0,0,0-.14-.1.28.28,0,0,0,0-.19c0-.17-.24-.23-.24-.23a.33.33,0,0,0-.13-.33c-.13-.07-.61.13-.84.23a1,1,0,0,0-.21.12h0c-.19.1-.51.36-.55.6S99,32.05,99,32.05l1.37.08.21-.32a1.31,1.31,0,0,0,0-.38l.27-.1c.2-.09.44-.18.39-.4A.2.2,0,0,0,101.08,30.79Z"/><path class="cls-3" d="M100.94,29.85a.37.37,0,0,0-.14-.3.44.44,0,0,0-.32,0l-.34.14-.35.14a.07.07,0,0,0,0,.1.08.08,0,0,0,.1,0l.3-.12.29-.12a.39.39,0,0,1,.26,0l.06,0a.28.28,0,0,1,0,.13.07.07,0,0,0,.14,0Z"/><path class="cls-3" d="M101.13,30.3a.48.48,0,0,0,0-.29.27.27,0,0,0-.22-.16.47.47,0,0,0-.17,0l-.17.07-.28.12-.31.14c-.08,0,0,.16.07.12s.41-.18.62-.27l.19-.08a.18.18,0,0,1,.1,0c.07,0,0,.18,0,.25a.07.07,0,1,0,.13,0Z"/><path class="cls-3" d="M101.18,30.77a.41.41,0,0,0,.1-.21.29.29,0,0,0,0-.2.32.32,0,0,0-.33-.09.43.43,0,0,0-.12.05l-.15.06-.3.12-.16.07a.06.06,0,0,0,0,.08s0,.07.08.05l.36-.14.27-.11.07,0H101a.12.12,0,0,1,.1.1.21.21,0,0,1-.06.17.07.07,0,1,0,.1.1Z"/><path class="cls-3" d="M100.41,31.1l.46-.18.19-.05,0,0a.13.13,0,0,1,0,.07.09.09,0,0,1,0,.07l0,.07-.13.07a3.8,3.8,0,0,1-.47.18c-.08,0,0,.17,0,.14a3.43,3.43,0,0,0,.48-.19l.15-.08a.33.33,0,0,0,.13-.21.27.27,0,0,0-.08-.22.21.21,0,0,0-.1-.06H101a3,3,0,0,0-.39.14l-.22.08a.08.08,0,0,0-.05.09.08.08,0,0,0,.09.05Z"/><path class="cls-2" d="M109.48,39.33a2.61,2.61,0,0,1-.24.3c-.08.09-.17.25-.09.37s.6-.28.6.13c0,.23,0,.73.14.81a.31.31,0,0,0,.33,0,.36.36,0,0,0,.3.1.78.78,0,0,0,.2-.16.37.37,0,0,0,.19.06c.18,0,.23-.23.26-.31l.09,0c.16,0,.13-.13.13-.33s-.07-.45-.07-.66a1.18,1.18,0,0,0-.07-.41.64.64,0,0,0-.33-.37,1.07,1.07,0,0,0-.47,0,3.51,3.51,0,0,0-.5.07C109.68,38.88,109.52,39.28,109.48,39.33Z"/><path class="cls-3" d="M110.21,40.81s-.1.1-.18.09-.11-.09-.13-.17a1.55,1.55,0,0,1,0-.31c0-.12,0-.25,0-.37s0-.07-.07-.07-.08,0-.07.07l0,.33,0,.31a.55.55,0,0,0,.1.25.25.25,0,0,0,.26.09.41.41,0,0,0,.2-.12.07.07,0,0,0,0-.1.06.06,0,0,0-.09,0Z"/><path class="cls-3" d="M110.63,40.77s0,0,0,0v0l0,.06s0,0,0,0l0,0-.07,0a.09.09,0,0,1-.1,0s0-.11,0-.17c0-.23,0-.46,0-.7,0-.09-.15-.09-.14,0s0,.43.05.65,0,.25.09.33a.29.29,0,0,0,.32,0,.35.35,0,0,0,.18-.27.08.08,0,0,0-.07-.07.07.07,0,0,0-.07.07Z"/><path class="cls-3" d="M111.06,40.55a.3.3,0,0,1-.08.24.11.11,0,0,1-.18,0,.11.11,0,0,1,0-.07s0,0,0,0v-.09l0-.26,0-.37c0-.09-.15-.09-.14,0s0,.46.07.69a.28.28,0,0,0,0,.13.28.28,0,0,0,.08.11.25.25,0,0,0,.33,0,.45.45,0,0,0,.14-.36.07.07,0,0,0-.07-.07.08.08,0,0,0-.07.07Z"/><path class="cls-3" d="M111,40l0,.16c0,.1,0,.2,0,.3a.25.25,0,0,0,.08.17.28.28,0,0,0,.2,0,.23.23,0,0,0,.14-.15.39.39,0,0,0,0-.15,3.12,3.12,0,0,0,0-.44.07.07,0,0,0-.09,0s0,0,0,.09a1.24,1.24,0,0,1,0,.33c0,.07,0,.18,0,.23h-.1v0s0-.05,0-.08a1.6,1.6,0,0,1,0-.23l0-.16s0-.07-.07-.07-.08,0-.07.07Z"/><path class="cls-10" d="M104.22,30a2.56,2.56,0,0,0-2.64,1.7c-.25.61-.15,1-.48,1.58,0-.78-.18-1-.21-1.75l-2.14.24a17.4,17.4,0,0,0,.71,4.47,1.63,1.63,0,0,0,1.62.89,4.46,4.46,0,0,0,1.51-.89v.94c1,0,4.52.21,5.73.24l0-.73.92,2.62,2.13-.28s-.34-1.66-.47-2.34c-.1-.45-.18-1-.43-2a26.57,26.57,0,0,0-.89-3.12,2.45,2.45,0,0,0-1.83-1.51A22.45,22.45,0,0,0,104.22,30Z"/><path class="cls-29" d="M101,33.3l.1,1.51a.07.07,0,0,0,.07.07.08.08,0,0,0,.07-.07l-.1-1.51s0-.07-.07-.07-.08,0-.07.07Z"/><path class="cls-29" d="M102.66,36.26l.06-1.28c0-.37,0-.75.06-1.13,0-.21,0-.43,0-.65a.07.07,0,0,0-.14,0c0,.38,0,.76,0,1.14s-.05.78-.07,1.17l0,.75a.07.07,0,0,0,.14,0Z"/><path class="cls-29" d="M108.37,36.71v-.35l0-.83,0-1,0-.87c0-.14,0-.29,0-.43h0a.07.07,0,0,0-.14,0v.35l0,.84,0,1,0,.88c0,.14,0,.29,0,.43h0a.07.07,0,0,0,.14,0Z"/><path class="cls-29" d="M106.6,35.73l.28.5.44.8.1.18a.07.07,0,0,0,.13-.07l-.28-.5-.45-.8-.1-.18c0-.08-.16,0-.12.07Z"/><path class="cls-29" d="M104.42,33.49l-.12.25-.27.62-.32.74-.28.65c-.05.1-.09.21-.14.31h0a.07.07,0,0,0,0,.09s.09,0,.1,0l.11-.26.27-.61.33-.75.28-.65c0-.1.09-.2.14-.31h0s0-.08,0-.1a.06.06,0,0,0-.09,0Z"/><path class="cls-2" d="M106.57,28.66c0,.33-1,.68-1.29.74-.49.11-1.35,0-1.33-.72,0-.45,0-.8.06-1.23a1.11,1.11,0,0,1,.39-.82,1.37,1.37,0,0,1,.89-.28,1.48,1.48,0,0,1,1.42.91Z"/><path class="cls-2" d="M106.5,28.36v1.77l-.92.51-.82-.56c0-.17,0-1.35,0-1.35Z"/><path class="cls-3" d="M104.81,29.5a1.81,1.81,0,0,0,1.13-.31c.06,0,0-.13,0-.09a2.31,2.31,0,0,1-.58.25,1.2,1.2,0,0,1-.5,0,.06.06,0,0,0,0,.06s0,0,0,.05Z"/><path class="cls-30" d="M104.28,27.62h.15l0,0s0,0,0,0,0,0,0,0l-.1,0h-.08a.06.06,0,0,0,0,.07,0,0,0,0,0,.06,0Z"/><path class="cls-30" d="M105.38,27.61h-.06l0,0h0s0,0,0,0a.05.05,0,0,1,0,0s0,0,0,0,0,0,0,0a.17.17,0,0,1,.1,0s.05,0,.08,0,0,0,0,.06a0,0,0,0,1-.06,0Z"/><path d="M105.2,28.05c0-.22.2-.3.25-.05S105.22,28.29,105.2,28.05Z"/><path d="M104.24,28.06c0-.22.2-.3.26,0S104.27,28.3,104.24,28.06Z"/><path class="cls-12" d="M104.68,28.37a0,0,0,0,0,0,0c0,.05,0,.07.08.07a.11.11,0,0,0,.08,0s0-.06,0-.08a.27.27,0,0,1-.08-.07l0-.08s0,0,0,.05A.3.3,0,0,0,104.68,28.37Z"/><path class="cls-12" d="M105.09,28.68a.36.36,0,0,1-.51,0c0-.05-.12,0-.08.07a.47.47,0,0,0,.33.14.51.51,0,0,0,.33-.13c0-.05,0-.12-.07-.08Z"/><path class="cls-31" d="M103.66,25.9c-.09,0-.09-.25-.08-.29a.41.41,0,0,1,.2-.28,1.93,1.93,0,0,1,1-.14c.28,0,1,0,1.25,0a1.78,1.78,0,0,1,1.4.9,2.2,2.2,0,0,1,.24,1.65,2.24,2.24,0,0,1-.88,1.07l-.27.18s0-.3-.07-.52a2.24,2.24,0,0,0-.09-.88.7.7,0,0,1-.1-.08.49.49,0,0,1-.08-.24c0-.08,0-.2-.09-.2a7.67,7.67,0,0,0-1.07.05,6.18,6.18,0,0,1-1,.05.31.31,0,0,1-.31-.2h0l-.25,0a.49.49,0,0,1-.34-.37C103,26.21,103.36,26,103.66,25.9Z"/><path class="cls-2" d="M106.12,27.91c-.07.57.92.38.91-.18S106.2,27.22,106.12,27.91Z"/><path class="cls-3" d="M106.72,27.64a.36.36,0,0,0-.37.26c0,.05.06.07.08,0a.29.29,0,0,1,.29-.2,0,0,0,0,0,0-.08Z"/><path class="cls-12" d="M105.28,28.53a.32.32,0,0,0,.08.21.06.06,0,1,0,.08-.08h0v0a.08.08,0,0,1,0,0h0a.64.64,0,0,1,0-.07h0v0s0-.06,0-.05a0,0,0,0,0,0,.05Z"/><path class="cls-12" d="M104.38,28.53l-.11.14a0,0,0,0,0,0,0,.05.05,0,0,0,0,0s0,0,0,0l0,0,.11-.15s0,0,0,0,0,0,0,0h0s0,0,0,0Z"/><path class="cls-8" d="M105.91,31.1a1,1,0,0,1-.19.4l0,0h-.31l-.06,0s0,0,0-.06-.11-.29-.14-.39l.4-.36Z"/><path class="cls-8" d="M105.34,31.42c-.2,1-.33,1.83-.52,2.84a.5.5,0,0,0,0,.15c0,.05,0,.12,0,.19s.29.75.36.93a0,0,0,0,0,0,0,6,6,0,0,0,.49-.91.36.36,0,0,0,0-.11v0c0-.7-.06-2.48-.11-3Z"/><path class="cls-29" d="M105.46,30.62l-.4.34L105,31h0s0,.06-.06.06,0,0,0-.05l0-.11a1.83,1.83,0,0,1-.08-.25c-.07-.22-.13-.44-.21-.65a.08.08,0,0,0-.09-.05.07.07,0,0,0-.05.08c.08.21.14.42.2.63l.09.26.06.14a.28.28,0,0,0,.08.11.14.14,0,0,0,.15,0l.06,0,0,0,0,0,0,0,.25-.22.2-.17s0-.07,0-.1a.09.09,0,0,0-.1,0Z"/><path class="cls-29" d="M105.52,30.72l.38.4,0,0h0s0,0,0,0l0,0a.14.14,0,0,0,.13.06.18.18,0,0,0,.14-.08c.07-.13.14-.27.2-.41a4.71,4.71,0,0,0,.19-.64s0-.08,0-.09a.07.07,0,0,0-.09,0,3.06,3.06,0,0,1-.15.54,3.52,3.52,0,0,1-.18.39l0,0a.17.17,0,0,1,0,.05s0,0,0,0L106,31l-.21-.22-.17-.18c-.07-.06-.16,0-.1.1Z"/><path class="cls-29" d="M102.53,30.54c.09.42.19.84.29,1.25,0,.11,0,.21.07.32s.15,0,.13,0c-.09-.42-.19-.83-.29-1.25,0-.1,0-.21-.07-.31a.07.07,0,1,0-.13,0Z"/><path class="cls-29" d="M108.42,30.43a6.85,6.85,0,0,0-.33,1.09l-.06.29s0,.07,0,.08a.08.08,0,0,0,.09,0,6.94,6.94,0,0,1,.28-1.11l.1-.27a.07.07,0,0,0,0-.09.06.06,0,0,0-.08.05Z"/><path class="cls-29" d="M98.89,32.36a9.26,9.26,0,0,0,1.49-.12l.42-.08c.09,0,0-.15,0-.14a8.86,8.86,0,0,1-1.45.19h-.42a.07.07,0,0,0,0,.14Z"/><path class="cls-29" d="M109.2,38.93l1.5-.26.43-.08a.08.08,0,0,0,0-.09.06.06,0,0,0-.08,0l-1.5.27-.42.07a.08.08,0,0,0,0,.09.07.07,0,0,0,.08,0Z"/><path class="cls-29" d="M111,38.89a.07.07,0,0,0,0-.14.07.07,0,0,0,0,.14Z"/><path class="cls-29" d="M99.05,32.06a.07.07,0,0,0,0-.14.07.07,0,0,0,0,.14Z"/><polygon class="cls-32" points="85.84 80.89 66.24 89.18 66.24 60.76 85.84 52.47 85.84 80.89"/><polygon class="cls-33" points="66.24 89.18 46.63 80.89 46.63 52.47 66.24 60.76 66.24 89.18"/><polygon class="cls-34" points="66.24 65 45.42 56.19 45.42 52.26 66.24 61.06 66.24 65"/><polygon class="cls-35" points="66.24 65 87.05 56.19 87.05 52.26 66.24 61.06 66.24 65"/><polygon class="cls-10" points="66.24 61.1 87.05 52.26 66.24 44.26 45.42 52.26 66.24 61.1"/><polygon class="cls-36" points="62.63 54.54 71.8 50.71 70.01 49.98 60.65 53.69 62.63 54.54"/><path class="cls-10" d="M72.83,72.19l-1.48,4.49-1,.41-1.51-3.22,1.22-.51.78,2.06.77-2.72Z"/><path class="cls-10" d="M75,75.26c-1.24.52-2.13,0-2.13-1.14A3.39,3.39,0,0,1,75,71.2c1.24-.52,2.12,0,2.12,1.14A3.38,3.38,0,0,1,75,75.26Zm0-1a1.67,1.67,0,0,0,1-1.47c0-.6-.42-.86-1-.61a1.69,1.69,0,0,0-1,1.47c0,.6.43.85,1,.61Z"/><path class="cls-10" d="M80.42,70l-1,.44v2.91l-1.07.44v-2.9l-1,.44v-1L80.42,69Z"/><path class="cls-10" d="M83.41,70.69v.92l-2.52,1.06V68.8l2.47-1v.92L82,69.28v.57l1.27-.54v.88L82,70.72v.58Z"/><polygon class="cls-10" points="70.91 38.03 62.19 41.82 62.19 54.11 70.91 50.31 70.91 38.03"/><path class="cls-11" d="M71,50.35l-8.84,3.84V41.79L71,37.94ZM62.24,54l8.62-3.75V38.11l-8.62,3.74Z"/><path class="cls-5" d="M65.12,42.32l-.68,2.08-.46.2-.7-1.49.56-.24.37,1,.35-1.26Z"/><path class="cls-5" d="M66,43.74c-.57.25-1,0-1-.51a1.6,1.6,0,0,1,1-1.36c.57-.25,1,0,1,.51a1.59,1.59,0,0,1-1,1.36Zm0-.45a.8.8,0,0,0,.47-.69c0-.28-.2-.39-.47-.27a.77.77,0,0,0-.47.68c0,.28.2.39.47.28Z"/><path class="cls-5" d="M68.5,41.29,68,41.5v1.34l-.5.21V41.71l-.48.21v-.44l1.46-.64Z"/><path class="cls-5" d="M69.82,41.63v.43l-1.16.5V40.78l1.14-.5v.43l-.66.28v.26l.59-.25v.4l-.59.25v.27Z"/><path class="cls-11" d="M67.68,46.69l-2.26,1V45.41l2.26-1Zm-2.12.79,2-.87v-2l-2,.86Z"/><path class="cls-11" d="M67.68,50l-2.26,1V48.72l2.26-1Zm-2.12.78,2-.86v-2l-2,.86Z"/><path class="cls-5" d="M66.59,49.85a.09.09,0,0,1-.1,0l-.72-.57s0-.12,0-.18A.15.15,0,0,1,66,49l.62.49,1.22-2.1c0-.07.13-.12.19-.1s.06.1,0,.17l-1.33,2.27a.18.18,0,0,1-.1.09Z"/></svg>