<svg xmlns="http://www.w3.org/2000/svg" viewBox="0 0 128.23 116.01"><defs><style>.cls-1{isolation:isolate;}.cls-2{fill:#efefef;}.cls-3{fill:#fff;}.cls-4,.cls-7{fill:#ddd;}.cls-5{fill:#b5b5b5;}.cls-6{fill:#ff6050;}.cls-7{mix-blend-mode:multiply;}.cls-8{fill:#333;}</style></defs><g class="cls-1"><g id="Calque_1" data-name="Calque 1"><path class="cls-2" d="M20.92,56.59l7.79-13.46a7.14,7.14,0,0,1,6.17-3.57h16.5V47.9H78.62V39.56H95.4a7.14,7.14,0,0,1,6.17,3.57l7.79,13.46Z"/><path class="cls-3" d="M34.51,103.07a4.66,4.66,0,0,1-4.65-4.66V64.5h70.56V98.41a4.66,4.66,0,0,1-4.66,4.66Z"/><path class="cls-4" d="M21.05,56.24v4.08a4.54,4.54,0,0,0,4.42,4.53H104.7a4.54,4.54,0,0,0,4.53-4.53V56.24Zm87.33,4.08A3.68,3.68,0,0,1,104.7,64H25.58a3.68,3.68,0,0,1-3.68-3.68V57.09h86.48Z"/><path class="cls-5" d="M108.38,57.09v3.23A3.68,3.68,0,0,1,104.7,64H25.58a3.68,3.68,0,0,1-3.68-3.68V57.09Z"/><path class="cls-6" d="M51.07,16.81v5h3.66a8.77,8.77,0,0,1,3.76.83,1.74,1.74,0,0,1,1,1.15,1.49,1.49,0,0,1,.07.47,4.18,4.18,0,0,1-2,3.54h0a4.12,4.12,0,0,1-2.19.63H51.07V47.89H78.93V16.81ZM78.08,47H51.92V29.23h3.44A5,5,0,0,0,58,28.49a5.35,5.35,0,0,0,2.72-4.65,3.17,3.17,0,0,0-.37-1.47.64.64,0,0,0-.08-.14A2.78,2.78,0,0,0,59,21.08a10,10,0,0,0-4.27-.86H52.24V17.66H78.08Z"/><path class="cls-6" d="M78.08,17.66V47H51.92V29.23h3.44A5,5,0,0,0,58,28.49a5.35,5.35,0,0,0,2.72-4.65,3.17,3.17,0,0,0-.37-1.47A2.82,2.82,0,0,0,59,21.08a10,10,0,0,0-4.27-.86H52.24V17.66Z"/><path class="cls-3" d="M51.38,16.76H63.24L61.91,16,55,11.83a8.87,8.87,0,0,0-2.14-.94l-.43-.11a8.72,8.72,0,0,0-2-.23,8.91,8.91,0,0,0-3.32.63L36.57,15.42a8.24,8.24,0,0,1-3.06.59H28.74V31.44h7.52a15,15,0,0,0,5.91-1.21l1.7-.72A14.54,14.54,0,0,1,48.2,28.4h0c.47,0,1-.06,1.43-.06h5.7a4.39,4.39,0,0,0,2.19-.58h0a4.47,4.47,0,0,0,2.27-3.6c0-.1,0-.21,0-.31a2.2,2.2,0,0,0-1.2-2,7.63,7.63,0,0,0-1.55-.52,10.23,10.23,0,0,0-2.36-.25H51.38ZM57.12,27a3.6,3.6,0,0,1-1.76.45h-5.7c-.5,0-1,0-1.51.08A14.45,14.45,0,0,0,45.8,28a15.39,15.39,0,0,0-2.26.76l-1.71.73a14.23,14.23,0,0,1-5.57,1.14H29.91V16.86h3.6a9.06,9.06,0,0,0,3.37-.65L47.43,12a8.17,8.17,0,0,1,3-.57,7.9,7.9,0,0,1,4.16,1.16l5.57,3.35H50.53v4.63H44.27a.71.71,0,0,0-.71.68.66.66,0,0,0,.2.5.71.71,0,0,0,.49.21H54.73a8.38,8.38,0,0,1,3.56.69,1.28,1.28,0,0,1,.66.88,1.37,1.37,0,0,1,0,.34A3.62,3.62,0,0,1,57.12,27Z"/><path class="cls-3" d="M59,23.84a3.62,3.62,0,0,1-3.63,3.63h-5.7c-.5,0-1,0-1.51.08A14.45,14.45,0,0,0,45.8,28a15.39,15.39,0,0,0-2.26.76l-1.71.73a14.23,14.23,0,0,1-5.57,1.14H29.91V16.86h3.6a9.06,9.06,0,0,0,3.37-.65L47.43,12a8.17,8.17,0,0,1,3-.57,7.9,7.9,0,0,1,4.16,1.16l5.57,3.35H50.53v4.63H44.27a.71.71,0,0,0-.71.68.66.66,0,0,0,.2.5.71.71,0,0,0,.49.21H54.73a8.38,8.38,0,0,1,3.56.69A1.37,1.37,0,0,1,59,23.84Z"/><path class="cls-5" d="M29,16a3.49,3.49,0,0,0-.26-.85A4,4,0,0,0,26.34,13a3.83,3.83,0,0,0-1.18-.18H20.82a3.91,3.91,0,0,0-3.9,3.9V32a3.88,3.88,0,0,0,3.9,3.9h4.34a3.9,3.9,0,0,0,3.89-3.6c0-.1,0-.2,0-.3V16.72A3.29,3.29,0,0,0,29,16ZM25.16,35H20.82A3,3,0,0,1,17.77,32V16.72a3.06,3.06,0,0,1,3.05-3h4.34a3.07,3.07,0,0,1,2.61,1.47l.12.23a3.08,3.08,0,0,1,.32,1.35V32c0,.1,0,.2,0,.3A3,3,0,0,1,25.16,35Z"/><path class="cls-7" d="M84.32,48.64a.69.69,0,0,0-.49-.21h-.46a.71.71,0,0,1-.6.32H48a.58.58,0,0,0-.11.34.65.65,0,0,0,.19.49.68.68,0,0,0,.48.21h35.3a.68.68,0,0,0,.51-1.15Zm-26-26a8.38,8.38,0,0,0-3.56-.69h-10a.66.66,0,0,0-.09.32.74.74,0,0,0,.2.51.7.7,0,0,0,.49.2H55.77A8.72,8.72,0,0,1,59,23.5,1.28,1.28,0,0,0,58.29,22.62Zm52.39,33.8-.29-.5-7-12.19a7.88,7.88,0,0,0-1.8-2.13,8,8,0,0,0-4.42-1.82q-.34,0-.69,0H80.82V17H64.59l-.3-.18L62.87,16l-.79-.48-5.57-3.35a10,10,0,0,0-2.34-1,9.64,9.64,0,0,0-1.7-.33c-.33,0-.67,0-1,0a9.62,9.62,0,0,0-3.64.7L37.28,15.66a7.34,7.34,0,0,1-2.74.53H30.68L30.61,16a4.87,4.87,0,0,0-.44-.85A5,5,0,0,0,29,13.92,4.76,4.76,0,0,0,26.34,13H21.86a4.76,4.76,0,0,0-4.76,4.76V33.18a4.77,4.77,0,0,0,4.76,4.6h4.33a4.76,4.76,0,0,0,4.74-4.46h6.36a15.9,15.9,0,0,0,6.24-1.27l1.71-.73a13.85,13.85,0,0,1,4.08-1h0l.88-.05h1v9.54H35.92a8,8,0,0,0-6.92,4L22.26,55.39l-.3.53-.19.32-.1.18-.1.17-.34.58v4.18c0,.09,0,.18,0,.26a5.39,5.39,0,0,0,5.38,5.12H30V99.45a2.62,2.62,0,0,0,0,.28h0a5.4,5.4,0,0,0,.74,2.49,5.4,5.4,0,0,0,1.55,1.7H100a5.73,5.73,0,0,0,1.55-1.7,5.57,5.57,0,0,0,.74-2.47c0-.1,0-.2,0-.3V66.73h3.42a5.38,5.38,0,0,0,5.38-5.38V57.17Zm-1.27,4.93A3.68,3.68,0,0,1,105.73,65H26.62a3.64,3.64,0,0,1-1.15-.18,3.69,3.69,0,0,1-2.54-3.5V58.13h86.48ZM79.12,18.69V48.07H53V30.26h3.44A5,5,0,0,0,59,29.52a5.35,5.35,0,0,0,2.72-4.65,3.2,3.2,0,0,0-.37-1.47,2.79,2.79,0,0,0-1.11-1.17,1.55,1.55,0,0,0-.22-.12A8.86,8.86,0,0,0,58,21.45c-.28-.05-.56-.09-.86-.12a11.2,11.2,0,0,0-1.32-.07h-2.5V18.69ZM61.21,16.94H51.57v4.63H45.3a.74.74,0,0,0-.62.36.66.66,0,0,0-.09.32.74.74,0,0,0,.2.51.7.7,0,0,0,.49.2H55.77A8.72,8.72,0,0,1,59,23.5l.37.16.14.08a1.12,1.12,0,0,1,.37.41,1.43,1.43,0,0,1,.2.72,3.66,3.66,0,0,1-3.64,3.64H50.22c-.35,0-.7,0-1,.06a15.55,15.55,0,0,0-4.61,1.18l-1.7.72a14.1,14.1,0,0,1-5.58,1.14H30.94V17.89h3.6a9.11,9.11,0,0,0,3.38-.65L48.47,13a8,8,0,0,1,7.16.58l3.86,2.32.08.05,1.33.8.09,0ZM29.24,33c0,.1,0,.2,0,.3a3.07,3.07,0,0,1-3,2.76H21.86a3,3,0,0,1-1-.19,3.1,3.1,0,0,1-1.58-1.29A3,3,0,0,1,18.8,33V17.76a3.06,3.06,0,0,1,3.06-3.06h4.33a3,3,0,0,1,1.58.44l.12.08a3.06,3.06,0,0,1,.85.87,1.92,1.92,0,0,1,.18.31,3.09,3.09,0,0,1,.14.32,3,3,0,0,1,.18,1ZM24,55.74l.2-.35,6.25-10.8a6.29,6.29,0,0,1,5.44-3.14H51.25v7H48.54a.7.7,0,0,0-.59.32.58.58,0,0,0-.11.34.65.65,0,0,0,.19.49.68.68,0,0,0,.48.21h35.3a.68.68,0,0,0,.51-1.15.69.69,0,0,0-.49-.21h-3v-7H96.43a6.27,6.27,0,0,1,3.9,1.36,6.16,6.16,0,0,1,1.54,1.78l6.25,10.8.49.85.1.18H23.63l.11-.18Zm11.52,47.51a3.77,3.77,0,0,1-1.17-.18,4,4,0,0,1-1.44-.85,3.86,3.86,0,0,1-.55-.65,3.79,3.79,0,0,1-.65-2.12V66.73h68.87V99.45c0,.1,0,.2,0,.3a3.81,3.81,0,0,1-3.79,3.5Z"/><path class="cls-6" d="M28.21,16.72V32c0,.1,0,.2,0,.3a3,3,0,0,1-3,2.75H20.82A3.06,3.06,0,0,1,17.77,32V16.72a3.06,3.06,0,0,1,3.05-3h4.34a3,3,0,0,1,2.73,1.7A3.08,3.08,0,0,1,28.21,16.72Z"/><path class="cls-6" d="M46.82,91H43.37L38.24,76.56h3.14l2.22,6.76c.66,2,1.2,3.82,1.53,5.27h0c.3-1.32.91-3.16,1.61-5.22l2.31-6.81h3Z"/><polygon class="cls-6" points="79.57 78.97 75.15 78.97 75.15 91.01 72.22 91.01 72.22 78.97 67.79 78.97 67.79 76.56 79.57 76.56 79.57 78.97"/><polygon class="cls-6" points="91.69 91.01 81.53 91.01 81.53 76.56 91.64 76.56 91.64 78.97 84.37 78.97 84.37 82.28 91.33 82.28 91.33 84.69 84.37 84.69 84.37 88.6 92.04 88.6 91.69 91.01"/><path class="cls-6" d="M60,76.36c-4.46,0-7,3.23-7,7.43s2.37,7.43,6.86,7.43c4.67,0,7.05-3.48,7.05-7.49C66.87,79.33,64.21,76.36,60,76.36Zm-.08,12.47c-2.65,0-4-2.24-4-5.11s1.19-5,3.91-5,4,2.22,4,5S62.8,88.83,59.93,88.83Z"/><path class="cls-8" d="M83.28,47.61a.67.67,0,0,0-.48-.21h-3v1.34H50.22V47.4H47.51a.69.69,0,0,0-.7.65.65.65,0,0,0,.67.7H82.77a.71.71,0,0,0,.6-.32.61.61,0,0,0,.1-.33A.65.65,0,0,0,83.28,47.61Zm0,0a.67.67,0,0,0-.48-.21h-3v1.34H50.22V47.4H47.51a.69.69,0,0,0-.7.65.65.65,0,0,0,.67.7H82.77a.71.71,0,0,0,.6-.32.61.61,0,0,0,.1-.33A.65.65,0,0,0,83.28,47.61Zm0,0a.67.67,0,0,0-.48-.21h-3v1.34H50.22V47.4H47.51a.69.69,0,0,0-.7.65.65.65,0,0,0,.67.7H82.77a.71.71,0,0,0,.6-.32.61.61,0,0,0,.1-.33A.65.65,0,0,0,83.28,47.61Zm0,0a.67.67,0,0,0-.48-.21h-3v1.34H50.22V47.4H47.51a.69.69,0,0,0-.7.65.65.65,0,0,0,.67.7H82.77a.71.71,0,0,0,.6-.32.61.61,0,0,0,.1-.33A.65.65,0,0,0,83.28,47.61Zm0,0a.67.67,0,0,0-.48-.21h-3v1.34H50.22V47.4H47.51a.69.69,0,0,0-.7.65.65.65,0,0,0,.67.7H82.77a.71.71,0,0,0,.6-.32.61.61,0,0,0,.1-.33A.65.65,0,0,0,83.28,47.61Zm26.36,7.78-.29-.5-7-12.19a8.64,8.64,0,0,0-.77-1.1,8,8,0,0,0-6.14-2.89H78.08V47H51.92V38.71h-17a8,8,0,0,0-6.91,4l-7,12.19-.29.5-.43.75v1.3h1.7v-.35h86.48v.35h1.7v-1.3Zm-30.17-15H95.4a6.29,6.29,0,0,1,4.93,2.4,6.39,6.39,0,0,1,.5.74l6.85,11.84.2.35H22.4l.2-.35,6.84-11.84a6.32,6.32,0,0,1,5.44-3.14H50.53v7h-3a.69.69,0,0,0-.7.65.65.65,0,0,0,.67.7H82.77a.71.71,0,0,0,.6-.32.61.61,0,0,0,.1-.33.65.65,0,0,0-.19-.49.67.67,0,0,0-.48-.21H79.47Zm3.81,7.2a.67.67,0,0,0-.48-.21h-3v1.34H50.22V47.4H47.51a.69.69,0,0,0-.7.65.65.65,0,0,0,.67.7H82.77a.71.71,0,0,0,.6-.32.61.61,0,0,0,.1-.33A.65.65,0,0,0,83.28,47.61Zm0,0a.67.67,0,0,0-.48-.21h-3v1.34H50.22V47.4H47.51a.69.69,0,0,0-.7.65.65.65,0,0,0,.67.7H82.77a.71.71,0,0,0,.6-.32.61.61,0,0,0,.1-.33A.65.65,0,0,0,83.28,47.61Zm0,0a.67.67,0,0,0-.48-.21h-3v1.34H50.22V47.4H47.51a.69.69,0,0,0-.7.65.65.65,0,0,0,.67.7H82.77a.71.71,0,0,0,.6-.32.61.61,0,0,0,.1-.33A.65.65,0,0,0,83.28,47.61Z"/><path class="cls-8" d="M29,64V98.41a5.41,5.41,0,0,0,.17,1.34,5.58,5.58,0,0,0,1.37,2.47,4.84,4.84,0,0,0,.63.57,5.49,5.49,0,0,0,3.34,1.13H95.76a5.47,5.47,0,0,0,4-1.7,5.58,5.58,0,0,0,1.37-2.47,5.4,5.4,0,0,0,.16-1.34V64ZM99.57,98.41a3.82,3.82,0,0,1-3.81,3.81H34.51a3.81,3.81,0,0,1-3.8-3.81V65.35H99.57Z"/><path class="cls-8" d="M109.64,55.39h-89l-.43.75v4.18a5.39,5.39,0,0,0,5.38,5.38H104.7a5.39,5.39,0,0,0,5.38-5.38V56.14Zm-1.26,4.93A3.68,3.68,0,0,1,104.7,64H25.58a3.68,3.68,0,0,1-3.68-3.68V57.09h86.48Z"/><path class="cls-8" d="M50.53,16v4.58h-.31v1.39h4.51a8.38,8.38,0,0,1,3.56.69,1.28,1.28,0,0,1,.66.88,1.37,1.37,0,0,1,0,.34A3.62,3.62,0,0,1,57.12,27a3.3,3.3,0,0,1-1.76.51H50.22V48.74H79.79V16ZM78.08,47H51.92V29.23h3.44A5,5,0,0,0,58,28.49a5,5,0,0,0,2.4-4.28,2.64,2.64,0,0,0-1.53-2.39c-.3-.14-.6-.26-.9-.37a9.72,9.72,0,0,0-3.22-.54H51.92V17.66H78.08Z"/><path class="cls-8" d="M60.25,22.23A2.78,2.78,0,0,0,59,21.08a10,10,0,0,0-4.27-.86H52.24V17.61H66.3l-1-.62L65,16.81,63.56,16l-2.51-1.51L55.48,11.1a9.55,9.55,0,0,0-2.34-1,9.43,9.43,0,0,0-2.7-.39,9.82,9.82,0,0,0-3.64.7L36.25,14.63a7.38,7.38,0,0,1-2.74.53H27.89v.21a3.08,3.08,0,0,1,.32,1.35V32c0,.1,0,.2,0,.3h8.07A15.8,15.8,0,0,0,42.5,31l1.71-.72a13.72,13.72,0,0,1,4.07-1.05h0q.67-.06,1.35-.06h5.7A5.28,5.28,0,0,0,58,28.49a5.35,5.35,0,0,0,2.72-4.65,3.17,3.17,0,0,0-.37-1.47A.64.64,0,0,0,60.25,22.23ZM29.59,16.86h3.92a9.06,9.06,0,0,0,3.37-.65L47.43,12a8.17,8.17,0,0,1,3-.57,7.9,7.9,0,0,1,4.16,1.16l5.57,3.35H50.53v4.63H44.27a.71.71,0,0,0-.71.68.66.66,0,0,0,.2.5.71.71,0,0,0,.49.21H54.73a8.38,8.38,0,0,1,3.56.69,1.28,1.28,0,0,1,.66.88,1.37,1.37,0,0,1,0,.34,3.62,3.62,0,0,1-3.63,3.63h-5.7c-.5,0-1,0-1.51.08A14.45,14.45,0,0,0,45.8,28a15.39,15.39,0,0,0-2.26.76l-1.71.73a14.23,14.23,0,0,1-5.57,1.14H29.59Z"/><path class="cls-8" d="M29.86,16a4.6,4.6,0,0,0-.22-.85A4.32,4.32,0,0,0,29,13.92,4.74,4.74,0,0,0,25.16,12H20.82a4.75,4.75,0,0,0-4.75,4.75V32a4.74,4.74,0,0,0,4.75,4.75h4.34a4.75,4.75,0,0,0,4.74-4.45c0-.1,0-.2,0-.3V16.72A5.52,5.52,0,0,0,29.86,16ZM19.24,34.6A3,3,0,0,1,17.77,32V16.72a3.06,3.06,0,0,1,3.05-3h4.34a3.07,3.07,0,0,1,2.61,1.47l.12.23a3.08,3.08,0,0,1,.32,1.35V32c0,.1,0,.2,0,.3a3,3,0,0,1-3,2.75H20.82A3.05,3.05,0,0,1,19.24,34.6Z"/><path class="cls-8" d="M116.84,103.07a.85.85,0,0,1-.85.85H14.29a.85.85,0,0,1,0-1.7H116A.85.85,0,0,1,116.84,103.07Z"/><path class="cls-8" d="M10.78,103.92H6.9a.85.85,0,1,1,0-1.7h3.88a.85.85,0,0,1,0,1.7Z"/><path class="cls-8" d="M29.86,99.75H26a.85.85,0,0,1,0-1.7h3.88a.85.85,0,0,1,0,1.7Z"/><path class="cls-8" d="M22.47,99.75H18.6a.85.85,0,0,1,0-1.7h3.87a.85.85,0,0,1,0,1.7Z"/><path class="cls-8" d="M104.3,99.75h-3.88a.85.85,0,1,1,0-1.7h3.88a.85.85,0,0,1,0,1.7Z"/><path class="cls-8" d="M111.68,99.75h-3.87a.85.85,0,1,1,0-1.7h3.87a.85.85,0,1,1,0,1.7Z"/><path class="cls-8" d="M123.38,103.92H119.5a.85.85,0,0,1,0-1.7h3.88a.85.85,0,0,1,0,1.7Z"/></g></g></svg>